<?xml version="1.0" standalone="no"?>
<!DOCTYPE svg PUBLIC "-//W3C//DTD SVG 1.1//EN" "http://www.w3.org/Graphics/SVG/1.1/DTD/svg11.dtd" >
<svg xmlns="http://www.w3.org/2000/svg">
<metadata>
Created by FontForge 20120731 at Tue Dec  6 10:06:49 2016
 By admin
</metadata>
<defs>
<font id="iconfont" horiz-adv-x="1024" >
  <font-face 
    font-family="iconfont"
    font-weight="500"
    font-stretch="normal"
    units-per-em="1024"
    panose-1="2 0 6 3 0 0 0 0 0 0"
    ascent="896"
    descent="-128"
    x-height="792"
    bbox="0 -212 3385 898"
    underline-thickness="0"
    underline-position="0"
    unicode-range="U+0078-E69F"
  />
<missing-glyph 
 />
    <glyph glyph-name=".notdef" 
 />
    <glyph glyph-name=".notdef" 
 />
    <glyph glyph-name=".null" horiz-adv-x="0" 
 />
    <glyph glyph-name="nonmarkingreturn" horiz-adv-x="341" 
 />
    <glyph glyph-name="x" unicode="x" horiz-adv-x="1001" 
d="M281 543q-27 -1 -53 -1h-83q-18 0 -36.5 -6t-32.5 -18.5t-23 -32t-9 -45.5v-76h912v41q0 16 -0.5 30t-0.5 18q0 13 -5 29t-17 29.5t-31.5 22.5t-49.5 9h-133v-97h-438v97zM955 310v-52q0 -23 0.5 -52t0.5 -58t-10.5 -47.5t-26 -30t-33 -16t-31.5 -4.5q-14 -1 -29.5 -0.5
t-29.5 0.5h-32l-45 128h-439l-44 -128h-29h-34q-20 0 -45 1q-25 0 -41 9.5t-25.5 23t-13.5 29.5t-4 30v167h911zM163 247q-12 0 -21 -8.5t-9 -21.5t9 -21.5t21 -8.5q13 0 22 8.5t9 21.5t-9 21.5t-22 8.5zM316 123q-8 -26 -14 -48q-5 -19 -10.5 -37t-7.5 -25t-3 -15t1 -14.5
t9.5 -10.5t21.5 -4h37h67h81h80h64h36q23 0 34 12t2 38q-5 13 -9.5 30.5t-9.5 34.5q-5 19 -11 39h-368zM336 498v228q0 11 2.5 23t10 21.5t20.5 15.5t34 6h188q31 0 51.5 -14.5t20.5 -52.5v-227h-327z" />
    <glyph glyph-name="calendar" unicode="&#xe650;" 
d="M687 579q16 0 28 11t12 27v176q0 16 -12 27.5t-28 11.5t-27 -11.5t-11 -27.5v-176q0 -16 11 -27t27 -11zM610 734h-196v-58h196v58zM839 734h-73v-58h76q16 0 28.5 -12t12.5 -29v-135h-742v135q0 17 12.5 29t28.5 12h76v58h-72q-42 0 -72.5 -30t-30.5 -72v-595
q0 -43 29.5 -73t71.5 -30h655q42 0 72 30.5t30 72.5v595q0 42 -30 72t-72 30zM883 34q0 -17 -12.5 -29t-28.5 -12h-660q-16 0 -28.5 12t-12.5 29v408h742v-408zM296.5 266q24.5 0 41.5 17t17 41.5t-17 42t-41.5 17.5t-41.5 -17.5t-17 -42t17 -41.5t41.5 -17zM511.5 266
q24.5 0 41.5 17t17 41.5t-17 42t-41.5 17.5t-41.5 -17.5t-17 -42t17 -41.5t41.5 -17zM295.5 51q24.5 0 41.5 17.5t17 41.5t-17 41.5t-41.5 17.5t-41.5 -17.5t-17 -41.5t17 -41.5t41.5 -17.5zM511.5 51q24.5 0 41.5 17.5t17 41.5t-17 41.5t-41.5 17.5t-41.5 -17.5t-17 -41.5
t17 -41.5t41.5 -17.5zM726 266q24 0 41.5 17t17.5 41.5t-17.5 42t-41.5 17.5t-41.5 -17.5t-17.5 -42t17.5 -41.5t41.5 -17zM336 579q16 0 28 11t12 27v176q0 16 -12 27.5t-28 11.5t-27.5 -11.5t-11.5 -27.5v-176q0 -16 11.5 -27t27.5 -11z" />
    <glyph glyph-name="qian" unicode="&#xe662;" 
d="M580 -210q-26 -2 -57.5 -2t-50.5 1l-19 1q-7 1 -19.5 1.5t-49 7t-69.5 17t-73.5 32.5t-69.5 50.5t-49 75.5t-20 104t18.5 113t48 100t66 84t72 69t65.5 50.5t48.5 32l18.5 10.5h155q6 -5 17.5 -13t45 -35.5t63.5 -56.5t67 -72.5t64 -86.5t45 -96.5t18 -103.5
q0 -40 -11.5 -75.5t-31 -61.5t-44.5 -48t-52.5 -36.5t-55.5 -26t-53 -18t-44.5 -10.5t-31 -5.5l-11.5 -1.5v0zM440 555v55h155v-55h-155v0zM592 628h-149l-80 180q47 -37 76 -37q13 0 32.5 9.5t32.5 18.5l14 10q46 -38 74 -38q13 0 33 10t33 19l13 10l-79 -182v0zM471 -51
h70v68h93v55h-93v30h93v55h-66l79 156h-77l-51 -105q-8 -19 -13 -35q-4 15 -13 35l-50 105h-77l78 -156h-65v-55h92v-30h-92v-55h92v-68v0z" />
    <glyph glyph-name="close" unicode="&#xe684;" 
d="M195 703q105 105 253 126q89 13 175.5 -9t158.5 -76t117.5 -130.5t57.5 -165.5q18 -121 -27 -232t-139 -185.5t-215 -91.5q-160 -23 -297 60q-12 7 -15 20t4 24.5t20 14.5t24 -4q118 -72 255 -52q103 15 184 79t119.5 159t23.5 199q-11 76 -50 141.5t-101 112
t-135.5 65.5t-150.5 8q-103 -15 -184 -79t-119.5 -159t-23.5 -199q12 -83 57 -153q7 -11 4.5 -24t-14 -20.5t-24.5 -4.5t-20 14q-52 82 -66 179q-13 89 9 175t76 159q19 26 42 49v0h1zM195 703zM561 389l139 137q9 10 9 23t-9.5 22.5t-22.5 9.5t-23 -9l-139 -138l-137 138
q-9 9 -22.5 9t-23 -9.5t-9.5 -22.5t10 -23l136 -137l-138 -136q-9 -10 -9 -23t9.5 -22.5t22.5 -9.5t23 9l138 137l139 -140q10 -10 23 -10t22.5 9.5t9.5 23t-9 22.5l-139 140v0z" />
    <glyph glyph-name="document" unicode="&#xe651;" 
d="M856 649v0v1v1q0 4 -2 7v0l-2 4v0q0 1 -1 1l-0.5 0.5t-0.5 1t-0.5 0.5t-0.5 1h-0.5t-0.5 1l-149 147q-7 7 -17 8v0h-2v0h-1h-450q-11 0 -19 -8t-8 -19v-820q0 -11 8 -19t19 -8h600q12 0 20 8t8 19v672q0 1 -1 2zM706 729l56 -55h-56v55zM802 3h-546v764h396v-120
q0 -11 8 -19t19 -8h123v-617zM725 380h-378q-11 0 -19 -8t-8 -19t8 -19t19 -8h378q11 0 19 8t8 19t-8 19t-19 8zM320 467.5q0 -11.5 8 -19.5t19 -8h378q11 0 19 8t8 19.5t-8 19.5t-19 8h-378q-11 0 -19 -8t-8 -19.5zM725 266h-378q-11 0 -19 -8t-8 -19.5t8 -19.5t19 -8h378
q11 0 19 8t8 19.5t-8 19.5t-19 8zM725 151h-378q-11 0 -19 -8t-8 -19.5t8 -19.5t19 -8h378q11 0 19 8t8 19.5t-8 19.5t-19 8z" />
    <glyph glyph-name="add-01" unicode="&#xe601;" 
d="M954 340q0 -18 -13 -31t-31 -13h-310v-310q0 -18 -13 -31t-31 -13h-88q-18 0 -31 13t-13 31v310h-310q-18 0 -31 13t-13 31v88q0 18 13 31t31 13h310v310q0 18 13 31t31 13h88q18 0 31 -13t13 -31v-310h310q18 0 31 -13t13 -31v-88z" />
    <glyph glyph-name="download" unicode="&#xe663;" 
d="M544 57v391h-64v-391l-90 90l-45 -46l167 -167l167 167l-45 46zM767 608q-12 96 -84.5 161t-170.5 65t-170.5 -65t-84.5 -161q-82 -5 -138.5 -65t-56.5 -143q0 -86 61 -147.5t148 -61.5h112v64h-112q-60 0 -102.5 42.5t-42.5 102.5q0 57 39 98.5t96 45.5l53 4l7 53
q9 72 63.5 120.5t127.5 48.5t127.5 -48.5t63.5 -120.5l7 -53l53 -4q57 -4 96 -45.5t39 -98.5q0 -60 -42.5 -102.5t-102.5 -42.5h-112v-64h112q87 0 148 61.5t61 147.5q0 83 -56.5 143t-138.5 65z" />
    <glyph glyph-name="caution" unicode="&#xe686;" 
d="M512 834q-186 0 -318 -132t-132 -318t132 -318t318 -132t318 132t132 318t-132 318t-318 132zM568 120q0 -7 -5 -12t-12 -5h-78q-7 0 -12 5t-5 12v78q0 7 5 12t12 5h78q7 0 12 -5t5 -12v-78zM568 345q0 -7 -5 -12t-12 -5h-78q-7 0 -12 5t-5 12v303q0 7 5 12t12 5h78
q7 0 12 -5t5 -12v-303z" />
    <glyph glyph-name="play" unicode="&#xe69d;" 
d="M512 834q-123 0 -226.5 -59.5t-163.5 -162.5t-60 -225q0 -92 35.5 -176t95.5 -144.5t143.5 -96.5t175.5 -36t175.5 36t143.5 96.5t95.5 144.5t35.5 176q0 122 -60 225t-163.5 162.5t-226.5 59.5zM511 2q-104 0 -192 52t-139 140.5t-51 193t51 192t139 137.5t192.5 50
t192.5 -50t139 -137.5t51 -192t-51 -193t-139 -140.5t-193 -52v0zM469 548q-6 6 -15.5 6t-16.5 -6v-329q7 -6 16.5 -6t15.5 6l187 152q7 5 7 12.5t-7 13.5z" />
    <glyph glyph-name="QR-Code" unicode="&#xe657;" 
d="M190 706h70v-70h-70v70zM386 832h-322v-322h126v-56h70v56h126v70h56v56h-56v196zM316 580h-182v182h182v-182zM190 132h70v-70h-70v70zM764 706h70v-70h-70v70zM512 390v-76h70v70h56v70h-56v56h-70v-56v-64zM512 134v-72h70v126h56v70h-126v-60v-64zM582 62h56v-56h-56
v56zM442 6v-70h140v70h-66h-74zM708 188h-70v-126h126v70h-56v56zM764 -64h196v70h-126v56h-70v-56v-70zM960 384v70h-126v-70h66h60zM890 132h70v-70h-70v70zM442 580h70v-70h-70v70zM764 454v56h196v322h-322v-70h-126v-56h126v-70h-56v-56h56v-70h70v-56h56zM708 762h182
v-182h-182v182zM708 314h56v-56h-56v56zM834 188h-70v-56h126v126h70v56h-126v-52v-74zM442 706h70v-70h-70v70zM260 384h56v-70h-56v70zM442 454h-126v-70h70v-70h56v76v64zM386 62v126h56v70h-252v126h-126v-70h70v-56h-70v-322h322v70h56v56h-56zM316 6h-182v182h182
v-182zM442 314h70v-56h-70v56zM638 384h70v-70h-70v70zM764 384h70v-70h-70v70z" />
    <glyph glyph-name="warning-01" unicode="&#xe687;" 
d="M635 846q-88 24 -177 12t-167.5 -57t-133 -116.5t-78.5 -158.5q-31 -119 0.5 -235.5t116.5 -202.5t204 -118q58 -15 118 -15q126 0 236 67q8 5 10 14t-3 17t-14 10t-17 -3q-73 -44 -155 -56t-163 10q-107 29 -184 106t-105.5 182t0.5 212q21 79 70 143t120 105t151 51.5
t159 -11t143 -70.5t105 -119.5t51.5 -150.5t-10.5 -159q-16 -56 -46 -107q-5 -8 -3 -17t10 -14t17 -3t14 10q35 57 51 119q32 119 0.5 235.5t-117 202t-203.5 117.5zM540 612q0 10 -6.5 16.5t-16 6.5t-16 -6.5t-6.5 -16.5v-249q0 -9 6.5 -16t16 -7t16 7t6.5 16v249z
M517.5 272q-9.5 0 -16 -6.5t-6.5 -15.5v-46q0 -9 6.5 -15.5t16 -6.5t16 6.5t6.5 15.5v46q0 9 -6.5 15.5t-16 6.5z" />
    <glyph glyph-name="info" unicode="&#xe622;" 
d="M511.5 834q-90.5 0 -173 -35.5t-142 -95t-95 -142t-35.5 -173t35.5 -173t95 -142t142 -95t173 -35.5t173 35.5t142.5 95t95 142t35 173t-35 173t-95 142t-142.5 95t-173 35.5zM512 707q26 0 45 -19t19 -45t-19 -45t-45 -19t-45 19t-19 45t19 45t45 19zM639 134h-254v64
h63v254h-63v64h191v-318h63v-64z" />
    <glyph glyph-name="message" unicode="&#xe688;" 
d="M511.5 788q-121.5 0 -224.5 -49.5t-163 -135t-60 -186.5q0 -82 41.5 -155.5t114.5 -125.5q-16 -23 -37.5 -43t-41.5 -32t-38 -20.5t-28 -12t-11 -3.5q39 -29 85 -39t85 -6t81 17.5t68 26.5t50 28q39 -5 79 -5q121 0 224 49.5t163 135t60 186t-60 186t-163 135
t-224.5 49.5zM512 90q-54 0 -106 12v0q-32 -29 -69 -47.5t-67.5 -24t-56.5 -7t-41 0.5l-15 2q29 16 52 35t35 33.5t20.5 29.5t10 19.5l2.5 7.5v0v0v0q-78 46 -123.5 115.5t-45.5 150.5q0 89 54 164.5t147 119.5t202.5 44t202.5 -44t147 -119.5t54 -164.5t-54 -164t-147 -119
t-202 -44zM370 461h261q10 0 16 6.5t6 15.5t-6 15.5t-16 6.5h-261q-9 0 -15.5 -6.5t-6.5 -15.5t6.5 -15.5t15.5 -6.5zM762 352h-480q-9 0 -15 -6.5t-6 -15.5t6 -15.5t15 -6.5h480q9 0 15.5 6.5t6.5 15.5t-6.5 15.5t-15.5 6.5z" />
    <glyph glyph-name="folder" unicode="&#xe658;" 
d="M905 522h-12v90q0 23 -16.5 39.5t-40.5 16.5h-351v51q0 23 -16.5 39.5t-39.5 16.5h-310q-23 0 -39.5 -16.5t-16.5 -39.5v-670q0 -23 16.5 -39.5t39.5 -16.5h717q24 0 40.5 16.5t16.5 39.5l68 417q0 23 -16.5 39.5t-39.5 16.5zM105 691q0 23 9.5 32.5t32.5 9.5h253
q24 0 33.5 -9.5t9.5 -32.5v-65h365q23 0 32.5 -9.5t9.5 -32.5v-62h-662q-24 0 -40.5 -16.5t-16.5 -39.5l-26 -171v396v0zM850 77q0 -23 -9.5 -32.5t-32.5 -9.5h-661q-23 0 -32.5 9.5t-9.5 32.5l69 361q0 23 9.5 32.5t32.5 9.5h661q23 0 32.5 -9.5t9.5 -32.5z" />
    <glyph glyph-name="folder-03" unicode="&#xe689;" 
d="M225 636h481v-54h-481v54zM892 121q5 6 9 14q4 7 -3 14l-7 7l-7 7q-8 6 -15 2t-15 -11q-18 -19 -35 -35q-18 -17 -33 -33q-6 -5 -12.5 -6t-10.5 4l-8 8q-5 6 -10 11l-11 13q-6 6 -7 8q-5 3 -11 4.5t-12 -4.5l-4 -3q-3 -2 -6 -6t-7 -6l-3 -4q-12 -12 3 -29q4 -5 12 -13
q8 -9 17 -18q12 -13 17 -18q9 -9 15 -14q6 -7 17 -6.5t17 6.5l25 25l29 29q15 15 30 29.5t26 24.5v0zM786 277q35 0 66 -13t55 -37q24 -23 37.5 -54t13.5 -66q0 -36 -14 -67q-13 -31 -37 -55q-24 -23 -55 -36t-66 -13q-37 0 -68 13t-55 36q-23 24 -37 55t-14 67q0 35 14 66
t37 54q24 23 55 37q31 13 68 13zM225 529h481v-54h-481v54zM171 689h589v-267h-589v267zM64 43q0 -20 16 -34.5t38 -14.5h493q-34 51 -34 113q0 86 61 146.5t147 60.5q43 0 82 -17v125h-54v374h-695v-374h-54v-379z" />
    <glyph glyph-name="userinfo-04" unicode="&#xe68a;" 
d="M389.5 478q-56.5 0 -96.5 41t-40 98.5t40 98.5t96.5 41t96.5 -41t40 -98.5t-40 -98.5t-96.5 -41zM389.5 721q-41.5 0 -71.5 -30.5t-30 -73t30 -72.5t71.5 -30t71 30t29.5 72.5t-29.5 73t-71 30.5zM602 288q-7 0 -12.5 5.5t-5.5 13.5q0 71 -58.5 121.5t-140.5 50.5
t-140.5 -50.5t-58.5 -121.5q0 -8 -5 -13.5t-12.5 -5.5t-12.5 5.5t-5 13.5q0 86 68.5 147t165.5 61t166 -61t69 -147q0 -8 -5.5 -13.5t-12.5 -5.5zM891 544h-280q-7 0 -12.5 -5t-5.5 -16q0 -9 5.5 -14t12.5 -5h269q13 0 21.5 -8.5t8.5 -22.5l1 -342q0 -13 -8.5 -22t-22.5 -9
h-747q-14 0 -26 9t-12 22l-1 342q0 14 8.5 22.5t22.5 8.5h23q17 0 17 20t-17 20h-33q-31 0 -46 -17t-15 -46v-355q0 -29 16.5 -47t47.5 -18h770q64 0 64 65v355q0 28 -16 45.5t-45 17.5v0v0v0zM679 410q0 -7 5 -13t14 -6h176q9 0 14 6t5 13q0 8 -4.5 13t-11.5 5h-176
q-22 0 -22 -24v0v6v0zM879 324h-183q-6 0 -10.5 -5.5t-4.5 -12.5t3.5 -13t9.5 -6h183q7 0 12.5 6t5.5 13q-1 7 -5.5 12.5t-10.5 5.5v0v0v0zM875 214h-183q-6 0 -10.5 -5t-4.5 -11.5t5 -12.5t11 -6h184q6 0 10 6t4 13q-1 7 -5.5 11.5t-10.5 4.5v0v0v0zM604 214h-446
q-7 0 -11.5 -5t-4.5 -11.5t5.5 -12.5t11.5 -6h447q6 0 10 6t4 13q-1 7 -5.5 11.5t-10.5 4.5v0v0v0z" />
    <glyph glyph-name="pause" unicode="&#xe69e;" 
d="M410.5 587q-16.5 0 -28 -11.5t-11.5 -28.5v-309q0 -17 11.5 -28.5t28 -11.5t28 11.5t11.5 28.5v309q0 17 -11.5 28.5t-28 11.5zM946 572q-35 83 -99 147t-147 99q-85 36 -179 36t-180 -36q-83 -35 -147 -99t-99 -147q-36 -86 -36 -179.5t36 -179.5q35 -83 99 -147
t147 -99q86 -36 180 -36t179 36q83 35 147 99t99 147q36 86 36 179.5t-36 179.5zM675 26q-74 -31 -154.5 -31t-154.5 31q-71 31 -126 86t-85 126q-32 74 -32 154.5t32 154.5q30 71 85 126t126 86q74 31 154.5 31t154.5 -31q72 -31 127 -86t85 -126q31 -74 31 -154.5
t-31 -154.5q-30 -71 -85 -126t-127 -86v0zM631 587q-16 0 -27.5 -11.5t-11.5 -28.5v-309q0 -17 11.5 -28.5t27.5 -11.5t27.5 11.5t11.5 28.5v309q0 17 -11.5 28.5t-27.5 11.5z" />
    <glyph glyph-name="camera" unicode="&#xe68b;" 
d="M512 512q-66 0 -113 -47t-47 -113.5t47 -113t113 -46.5t113 46.5t47 113t-47 113.5t-113 47zM245 712h-93v-41h93v41zM895 632h-174q-25 17 -43 56q-5 10 -15 17.5t-21 11t-21.5 5.5t-16.5 3h-7h-203q-2 1 -6.5 0.5t-16 -9.5t-22.5 -28q-24 -40 -46 -56h-174
q-24 0 -40.5 -18t-16.5 -43v-466q0 -25 16.5 -42.5t40.5 -17.5h766q24 0 40.5 17.5t16.5 42.5v466q0 25 -16.5 43t-40.5 18zM512 151q-83 0 -141.5 59t-58.5 141.5t58.5 141t141.5 58.5t141.5 -58.5t58.5 -141t-58.5 -141.5t-141.5 -59zM798.5 512q-13.5 0 -23.5 9.5
t-10 23.5t10 23.5t23.5 9.5t23.5 -9.5t10 -23.5t-10 -23.5t-23.5 -9.5z" />
    <glyph glyph-name="pencil-01" unicode="&#xe68c;" 
d="M840 99q0 -40 -29.5 -68.5t-70.5 -28.5h-516q-41 0 -70.5 28t-29.5 69v505q0 40 29.5 69t70.5 29h403l2 2l60 57h-465q-65 0 -112 -46t-47 -111v-505q0 -65 47 -111.5t112 -46.5h516q65 0 112 46.5t47 111.5v452l-62 -60v-392h3zM422 226l-72 -27l-38 35l30 70l485 475
l37 -35l-460 -453q-7 -7 0 -15q3 -2 8 -2t8 2l460 453l27 -28zM952 716l-110 108q-6 6 -15 6t-15 -6l-53 -52l-450 -440q-1 -2 -2 -4.5t-3 -3.5l-75 -182q-5 -16 5 -23q8 -7 15 -7q5 0 8 2l185 72q3 0 7 6l503 492q7 8 7 15q0 10 -7 18v-1z" />
    <glyph glyph-name="folder-01" unicode="&#xe665;" horiz-adv-x="1200" 
d="M1020 700h-407q-19 0 -32.5 12.5t-15.5 30.5v3v2v0v0q-4 36 -31.5 61t-64.5 25h-311q-40 0 -68 -28t-28 -68v-708q0 -40 28 -68t68 -28h862q40 0 68 28t28 68v574q0 40 -28 68t-68 28v0zM1058 35q0 -20 -14 -33.5t-33 -13.5h-844q-19 0 -33 13.5t-14 33.5v515h938v-515z
M121 604v131q0 20 13.5 33.5t33.5 13.5h304q18 0 31.5 -12t15.5 -30v-3v-2v0q3 -35 30 -59.5t63 -24.5h398q20 0 33.5 -13.5t13.5 -33.5h-936z" />
    <glyph glyph-name="refresh" unicode="&#xe66d;" 
d="M348 795q80 33 167 33t167 -33q83 -33 146 -96l63 62l59 -221l-221 59l68 68q-57 57 -129.5 87t-152.5 30t-153 -30.5t-130 -87t-87 -129.5t-30 -153t30 -153t87 -130t130 -87t153 -30t153 30t130 87l31 -31q-64 -64 -147 -98q-80 -32 -167 -32t-167 32q-83 34 -147 98
t-98 147q-32 80 -32 167t32 167q34 83 98 147t147 97v0z" />
    <glyph glyph-name="lock" unicode="&#xe66e;" 
d="M512 359q-31 0 -53 -22t-22 -53q0 -24 14 -43.5t36 -27.5v-92q0 -5 3.5 -8.5t8.5 -3.5h25q6 0 9.5 3.5t3.5 8.5v92q22 8 36 27.5t14 43.5q0 31 -22 53t-53 22v0zM787 534h-50v74q0 94 -66 159.5t-159 65.5t-159 -65.5t-66 -159.5v-74h-50q-41 0 -70.5 -29.5t-29.5 -70.5
v-400q0 -41 29.5 -70.5t70.5 -29.5h550q41 0 70 29.5t29 70.5v400q0 41 -29 70.5t-70 29.5v0zM337 633q0 62 51 106t123.5 44t124 -44t51.5 -106v-99h-350v99zM830 99q0 -45 -31 -76.5t-75 -31.5h-424q-44 0 -75 31.5t-31 76.5v270q0 45 31 76.5t75 31.5h424q44 0 75 -31.5
t31 -76.5v-270z" />
    <glyph glyph-name="text-01" unicode="&#xe66f;" 
d="M242 654h180v-45h-180v45zM242 339h180v-45h-180v45zM287 609h90v-270h-90v270zM872 -65h-719q-38 0 -64 26t-26 64v719q0 37 26 63.5t64 26.5h719q37 0 63.5 -26.5t26.5 -63.5v-719q0 -38 -26.5 -64t-63.5 -26v0zM112 37q0 -22 15.5 -37.5t37.5 -15.5h694
q22 0 37.5 15.5t15.5 37.5v694q0 22 -15.5 37.5t-37.5 15.5h-694q-22 0 -37.5 -15.5t-15.5 -37.5v-694z" />
    <glyph glyph-name="more-01" unicode="&#xe670;" 
d="M515 555l171 -171l-171 -171q-7 -7 -7 -16.5t7 -16.5l2 -1q6 -7 16 -7t17 7l187 187q7 7 7 18t-7 18l-187 188q-7 6 -17 6t-16 -6l-2 -2q-7 -7 -7 -16.5t7 -16.5v0zM336 528l145 -144l-145 -144q-5 -6 -5 -14t5 -14l2 -1q5 -6 13.5 -6t14.5 6l158 158q6 6 5 15q1 9 -5 15
l-158 158q-6 6 -14.5 6t-13.5 -6l-2 -1q-5 -6 -5 -14t5 -14v0zM512 -65q-91 0 -174.5 35.5t-143.5 95.5t-95.5 143.5t-35.5 174.5t35.5 174.5t95.5 143.5t143.5 96t174.5 36t174.5 -36t143.5 -96t95.5 -143.5t35.5 -174.5t-35.5 -174.5t-95.5 -143.5t-143.5 -95.5
t-174.5 -35.5v0zM512 786q-109 0 -201.5 -54t-146.5 -146.5t-54 -201.5t54 -201.5t146.5 -146.5t201.5 -54t201.5 54t146.5 146.5t54 201.5t-54 201.5t-146.5 146.5t-201.5 54v0z" />
    <glyph glyph-name="users-01" unicode="&#xe66c;" horiz-adv-x="1118" 
d="M639 675q-25 70 -84 114.5t-132 44.5q-95 0 -162.5 -72t-67.5 -172q0 -61 27 -114t72 -86q-102 -43 -165.5 -140t-63.5 -217h64q0 119 75.5 208.5t185.5 103.5h5t12.5 0.5t16.5 0.5h20t20 -1h3q29 -5 56 -15q-22 43 -27 93q-34 -17 -71 -17q-72 0 -122.5 54t-50.5 130
t50.5 130t122.5 54q58 0 103 -36t62 -93q24 19 51 30zM814 290q46 33 72.5 85.5t26.5 114.5q0 101 -67.5 173t-163.5 72q-95 0 -162.5 -71.5t-67.5 -172.5q0 -61 27 -114t73 -86q-103 -43 -166.5 -140t-63.5 -217v0h64q0 120 75.5 209t185.5 103l5 0.5t12.5 0.5t17 0.5t20 0
t19.5 -1.5h4q108 -16 180.5 -104t72.5 -206v0h66q-1 119 -65 215.5t-165 138.5v0zM682 308q-72 0 -122.5 53.5t-50.5 130t50.5 130t122.5 53.5t122.5 -53.5t50.5 -130t-50.5 -130t-122.5 -53.5v0z" />
    <glyph glyph-name="javascript" unicode="&#xe664;" horiz-adv-x="1396" 
d="M1280 364l-267 -267q-8 -8 -19.5 -8t-19.5 8l-38 38q-8 8 -8 19t8 19l210 210l-210 211q-8 8 -8 19t8 19l38 38q8 8 19.5 8t19.5 -8l267 -267q8 -8 8 -19.5t-8 -19.5v0zM562 -64l-49 13q-10 3 -15.5 12t-3.5 18l218 836q2 10 11.5 15t20.5 2l52 -14q11 -3 17 -12t3 -19
l-224 -835q-2 -10 -11 -14.5t-19 -1.5v0v0zM377 97q-8 -8 -19.5 -8t-19.5 8l-267 267q-8 8 -8 19.5t8 19.5l267 267q8 8 19.5 8t19.5 -8l38 -38q8 -8 8 -19t-8 -19l-210 -211l210 -210q8 -8 8 -19t-8 -19z" />
    <glyph glyph-name="upload-01" unicode="&#xe666;" horiz-adv-x="1716" 
d="M1375 438q1 5 1 12.5t-1 32t-5 49t-14 57.5t-24.5 62.5t-39.5 60.5t-57.5 54.5t-79.5 41t-104 24.5q-62 6 -117 -3.5t-93.5 -29.5t-71.5 -45.5t-53 -52t-34 -48.5t-20 -37l-5 -14q-4 4 -11 9t-29.5 15t-46 14.5t-58.5 -0.5t-70 -23q-31 -17 -52 -42t-28.5 -47.5
t-10.5 -43t-1 -32.5l1 -12q-5 -1 -14 -3t-34.5 -11.5t-48.5 -21.5t-51.5 -34t-49 -49t-34.5 -67.5t-14 -87.5q1 -47 17 -85t38 -61.5t52.5 -41t55.5 -25.5t52.5 -12.5t37 -5.5t14.5 -1v0h411v240h-129l217 215l218 -215h-130v-240h374q5 0 14 0.5t35 5t50 12t54.5 23.5
t54 38.5t43 58.5t26.5 80q4 49 -7.5 91t-31 70.5t-47 51.5t-51 36t-49 22.5t-35 11.5t-14.5 3v0v0z" />
    <glyph glyph-name="fasong" unicode="&#xe659;" 
d="M75 -203l-14 -2q-9 1 -21 6q-9 3 -13.5 14t-0.5 24q64 235 121 452q12 47 55 47h374q-204 54 -216 58q-8 2 -12.5 11.5t-1.5 18.5q2 7 10 11.5t16 1.5q278 -75 354 -94q18 -5 18 -30q0 -7 -10 -15t-23 -8h-517l-118 -442l827 476l-705 422v-342h-46v364q0 26 16 33t31 -4
q67 -38 265.5 -156.5t363.5 -217l165 -98.5z" />
    <glyph glyph-name="link-01" unicode="&#xe65a;" 
d="M371 187l338 338q12 12 12 29.5t-12 29.5t-29.5 12t-30.5 -12l-337 -338q-13 -12 -13 -29.5t13 -29.5v0q12 -12 29.5 -12t29.5 12v0zM483 245q7 -9 7 -22q0 -15 -11 -26l-177 -177q-11 -11 -26.5 -11t-26.5 11l-101 101q-11 10 -11 26t11 27l177 177q11 10 27 10
q9 0 17 -4l54 54q-33 27 -76.5 25t-74.5 -32l-177 -177q-33 -33 -33 -80t33 -79l101 -101q33 -33 79.5 -33t79.5 33l177 177q31 32 32.5 77t-28.5 78zM929 700l-101 101q-33 32 -79.5 32t-79.5 -32l-177 -177q-31 -31 -32.5 -74.5t25.5 -76.5l54 53q-5 9 -5 18q0 16 11 27
l177 177q11 10 26.5 10t26.5 -10l101 -101q11 -11 11 -26.5t-11 -26.5l-177 -177q-11 -11 -27 -11q-12 0 -21 7l-54 -53q33 -30 78 -29t77 33l177 177q33 33 33 79.5t-33 79.5v0z" />
    <glyph glyph-name="flow-03" unicode="&#xe65b;" horiz-adv-x="1026" 
d="M256 219l-193 193l193 193l192 -193zM963 577v257h-386v-100l-128 -1v-642v0v-57h128v-100h386v257h-386v-100h-72v586h72v-100h386z" />
    <glyph glyph-name="delete" unicode="&#xe602;" 
d="M803 530q-16 0 -26 -10t-10 -27v-429q0 -21 -13 -32.5t-31 -11.5h-422q-21 0 -32.5 13t-11.5 31v429q0 17 -10 27t-26.5 10t-26.5 -10t-10 -27v-429q0 -50 34 -83.5t83 -33.5h415q49 0 82.5 33.5t33.5 83.5v429q6 16 -3 26.5t-26 10.5zM454 129v364q0 16 -9 26.5
t-20 10.5q-13 0 -28.5 -11t-15.5 -26v-364q0 -16 10 -26t26.5 -10t26.5 10t10 26zM643 129v364q0 16 -13 26.5t-31 10.5q-29 0 -29 -37v-364q0 -16 9 -26t20 -10q13 0 28.5 10.5t15.5 25.5zM876 675h-182v51q0 38 -28 66.5t-67 28.5h-174q-39 0 -67 -28.5t-28 -66.5v-51
h-182q-16 0 -26 -10t-10 -26.5t10 -26.5t26 -10h728q16 0 26 10t10 26.5t-10 26.5t-26 10zM403 726q0 22 22 22h174q22 0 22 -22v-51h-218v51z" />
    <glyph glyph-name="mail" unicode="&#xe65c;" 
d="M904 172l-232 208l232 203v-411zM171 142l226 200l36 -32q33 -28 79.5 -28t78.5 28l37 32l225 -200h-682zM121 172v411l232 -203zM860 626l-291 -258q-38 -34 -56.5 -34t-56.5 34l-292 258h696zM881 684h-738q-30 0 -52 -21.5t-22 -52.5v-452q0 -31 22 -52.5t52 -21.5
h738q31 0 52.5 21.5t21.5 52.5v452q0 31 -21.5 52.5t-52.5 21.5z" />
    <glyph glyph-name="add-03" unicode="&#xe674;" 
d="M459 331h-349q-33 0 -40.5 9.5t-7.5 43.5t7.5 43.5t40.5 9.5h349v349q0 33 9 40.5t44 7.5q34 0 43.5 -7.5t9.5 -40.5v-349h349q33 0 40.5 -9t7.5 -44t-7.5 -44t-40.5 -9h-349v-349q0 -31 -10 -39.5t-43 -8.5q-34 0 -43.5 7.5t-9.5 40.5v349z" />
    <glyph glyph-name="loading" unicode="&#xe685;" 
d="M750 685h3q13 0 23 12t10 28v32h22q14 0 23.5 12t9.5 29v32h-619v-32q0 -17 9.5 -29t23.5 -12h21v-32q0 -16 10 -28t23 -12h3q0 -163 88 -251q18 -20 25 -29q9 -12 9 -19q1 -14 -21 -36v-1q-101 -88 -101 -264h-3q-13 0 -23 -11.5t-10 -28.5v-32h-22q-13 0 -22.5 -12
t-9.5 -28v-33h619v33q0 16 -9.5 28t-23.5 12h-22v32q0 17 -10 28.5t-23 11.5h-3q0 175 -101 263q0 1 -1 2q-22 22 -21 36q1 7 10 19l27 32v0q86 88 86 248v0zM646 498q-6 -9 -20 -23q-10 -12 -21 -22q-23 -28 -26 -47h-1q-7 -52 28 -89q19 -20 18 -19l2 -3l20 -23
q22 -22 35 -65.5t16 -70.5t3 -51h-61q1 62 -39 127q-3 4 -7.5 10.5t-14.5 20.5l-20 28q-25 35 -9 121q2 10 9 24.5t13 24t17 24t12 16.5q5 8 8 15.5t3 10.5v4h-158q-1 -13 11 -30q1 -2 11.5 -16.5t17 -24t13.5 -24t9 -24.5q16 -86 -9 -121l-20 -28t-14.5 -20.5t-7.5 -10.5
q-40 -65 -39 -127h-62q0 24 3 51t16 70.5t35 65.5q6 9 20 23l2 3q-1 -1 18 19q35 37 27 89v0q-3 19 -27 47q-10 10 -20 22l-20 23q-22 22 -35 65.5t-16 70t-3 50.5h337q-1 -24 -3.5 -50.5t-15.5 -70t-35 -65.5v0z" />
    <glyph glyph-name="save" unicode="&#xe68d;" 
d="M674 645h-105v172h105v-172zM89 -58h835q7 0 13.5 6.5t6.5 13.5v723l-133 132h-60v-255h-402v255h-258q-7 0 -13.5 -6t-6.5 -14v-835q-2 -7 4 -13.5t14 -6.5v0v0zM209 382h595v-392h-595v392zM674 815z" />
    <glyph glyph-name="pencil-02" unicode="&#xe68e;" horiz-adv-x="1249" 
d="M77 -58h1080v-72h-1080v72zM793 898l-672 -672v-217h216l673 673zM790 844l165 -165l-572 -573l-165 165zM331 55h-165v165l32 32l165 -165z" />
    <glyph glyph-name="label-no" unicode="&#xe67e;" horiz-adv-x="1032" 
d="M577 141l44 44l26 -26l-44 -44zM773 346l26 -26l-17 -17l-26 26zM727 300l18 18l26 -26l-18 -18zM6 -128h1022v1022zM638 314q8 4 9 4q4 2 4 1q1 -1 -1 -3v-4l1 -10q1 -2 2 -8t2 -10q3 -12 7 -31l20 21q-1 7 -3 10q-1 2 -2 5t-2 5h7h4q4 1 8 3q3 1 3.5 0t-0.5 -3v-4
l0.5 -3t0.5 -6q2 -17 4 -22q1 -5 3 -18.5t4 -19.5q7 7 13 15q2 3 6 8.5t6 8.5q1 -1 2.5 -3t2.5 -4q3 -3 6 -4l-26 -32q-6 -8 -9 -11q-3 -4 -4 -9q-4 4 -8 6q-2 1 -5 2t-4 2q1 2 2 6q1 3 1 11q0 3 -2 17q-1 12 -4 26l-13 -17q-3 -4 -7 -9q-2 -3 -3 -6q-11 7 -17 9q1 2 0 13
q-1 4 -3 11.5t-2 10.5q-4 14 -8 22q-7 15 -9 18q8 0 14 2zM610 21q-1 -4 -5 -11q-3 -4 -12 -15q-4 3 -11 6q-6 2 -14 2q7 5 11 9q5 5 6 7q2 4 1 6l-3 5l-32 32q-2 -6 -12 -28q-1 2 -9 7q-6 3 -12 5q6 9 10 14q6 10 10 15l-29 29q-3 -3 -7 -7.5t-6 -6.5q-8 -10 -9 -11l-13 13
q4 2 12 9q5 4 12 13q-16 16 -23 22q-9 8 -14 12q5 4 9.5 7.5t7.5 6.5q3 5 5 4.5t1 -5.5v-5q1 -1 2 -4l25 -25l11 11q7 8 8 10l13 -13q-1 -1 -9 -8l-12 -11l25 -25l7 13l4 12q6 -10 14 -11q-6 -11 -6 -14q-2 -2 -4 -6.5t-3 -6.5l42 -41q5 -5 6 -9q4 -2 3 -7zM714 127
q-2 -1 -8 -7l-11 -11l-4.5 -4.5l-6 -6l-5.5 -5.5l-16 -16l-1 -1l-1 -2l-1 -1l-2 -1l-1 -1l-1 -1l-1 -1l-1 -1l-1 -1l-1 -1v0q-6 -6 -7 -8q-1 -1 -2.5 -3t-1.5 -3q-7 8 -11 13q-10 9 -14 14l-75 75l-7.5 7.5t-7.5 6.5q-2 2 -6 5.5t-6 4.5q1 1 3 2.5t3 1.5l8 8q2 1 5.5 4.5
l5.5 5.5l1 1l1 1l1 1l1 1l1 1l1 1l1 1l1 1l1 1h1l1 1l1 1l1 1l1 1l1 1l1 2q19 18 25 26q9 10 13 15l14 -15q-6 -4 -13 -11l-17 -17l-35 -35l25 -25l27 26l12 12q1 2 3.5 5t4 4t3 3t2.5 3t2 3t2 3q2 -2 6 -6.5t5 -6.5q4 -5 14 -14.5t14 -13.5q3 -2 7 -6t6 -5q-1 -1 -2.5 -2
t-2.5 -1q0 -1 -2.5 -3t-3.5 -3t-4 -3.5t-5 -4.5l-12 -12l-26 -26l25 -26l35 34q7 8 12 12q7 6 9 9q1 2 3 4l2.5 2.5t1.5 2.5t2 3l15 -14q-2 -1 -4 -3t-4 -3zM758 190q-1 -3 -4 -6t-4.5 -5.5t-3.5 -4.5q-3 -5 -8 -12q-1 -1 -3 -4.5l-2 -3.5q-3 2 -4 3t-4 2l-5 3h-2q-3 2 -4 3
l2 2t2.5 3t3.5 3q2 2 10 12q10 12 14 17q1 2 7.5 9.5t9.5 12.5q1 -4 5 -7l6 -6q-2 -4 -16 -21zM864 277q-4 -7 -12 -17l-23 -23q-8 -8 -18 -16q-7 -6 -12 -7q-5 -2 -9 0q-6 3 -10 8l-63 64q-5 4 -7 7q-2 1 -7 5q1 0 3 2t4 3q4 5 8 7l2.5 2.5t3 3.5t2.5 3l10 10l-8 33
l-25 -25q3 -19 4 -31q-3 0 -8 -2q-6 -2 -9 -4q1 6 0 15q0 9 -3 19q-4 16 -5 18q0 1 -5 14q3 1 9 4l5 2.5t5 1.5q2 1 3 0t0 -3q-1 -1 -1 -6q0 -7 1 -12l19 19l12 12q6 8 8 10l10 -54l1 1l1 1l1 1l1 1l1 1l1 1l1 1l1 1l1 1l2 2l1 1l1 1l1 1l2 2q3 3 6 6.5t4 4.5q2 -3 5 -6
q3 -4 7 -7l28 -28q6 -6 9 -8q2 -2 4.5 -4t4.5 -4l-13 -12l-9 9l-47 -46l23 -23q2 -2 4.5 -4t3.5 -3q3 -2 7 -1q5 2 9 6q3 2 12 12l2 1l1 1l1 1l1 2l1 1l1 1l1 1l1 1l1 1l2 1l1 1l1 1l2 2q5 6 8 12q2 5 0 11q-1 7 -5 15q10 -1 21 4q5 -11 6 -17l-1.5 -4t-2.5 -7z" />
    <glyph glyph-name="done" unicode="&#xe68f;" horiz-adv-x="1056" 
d="M526 -66q-125 0 -228 59.5t-162.5 162.5t-59.5 228t59.5 228t162.5 162.5t228 59.5t228 -59.5t162.5 -162.5t59.5 -228t-59.5 -228t-162.5 -162.5t-228 -59.5zM526.5 778q-109.5 0 -200 -52t-142.5 -142.5t-52 -199.5t52 -199.5t142.5 -142.5t200 -52t199.5 52t142 142.5
t52 199.5t-52 199.5t-142 142.5t-199.5 52zM332 421l163 -164q9 -8 0 -16l-22 -23q-9 -8 -17 0l-163 163q-9 9 0 17l22 23q9 8 17 0zM751 561l23 -22q8 -9 0 -17l-301 -304q-9 -8 -17 0l-23 25q-8 9 0 17l304 301q2 2 7 2t7 -2z" />
    <glyph glyph-name="time-02" unicode="&#xe690;" horiz-adv-x="1056" 
d="M526 -66q-125 0 -228 59.5t-162.5 162.5t-59.5 228t59.5 228t162.5 162.5t228 59.5t228 -59.5t162.5 -162.5t59.5 -228t-59.5 -228t-162.5 -162.5t-228 -59.5zM526.5 778q-109.5 0 -200 -52t-142.5 -142.5t-52 -199.5t52 -199.5t142.5 -142.5t200 -52t199.5 52t142 142.5
t52 199.5t-52 199.5t-142 142.5t-199.5 52zM726 277l-180 110v216q0 17 -17 17h-17q-8 0 -12.5 -5.5t-4.5 -11.5v-236q0 -5 3.5 -11t7.5 -6l194 -121q10 -3 18 -1t13 7l12 17q-2 1 -6.5 11.5t-10.5 13.5v0z" />
    <glyph glyph-name="search" unicode="&#xe691;" 
d="M946 10l-266 263q83 88 83 223q0 91 -43.5 167t-120 120.5t-168.5 44.5t-169.5 -44.5t-123 -120.5t-45.5 -166.5t45.5 -165t123 -117t169.5 -42.5q128 0 209 62l270 -263q7 -7 18 -7t22 10q3 8 3 18.5t-7 17.5v0zM143 496q0 114 82.5 194t198.5 80t198.5 -80t82.5 -193.5
t-82.5 -193.5t-198.5 -80t-198.5 80t-82.5 193v0z" />
    <glyph glyph-name="eye-off" unicode="&#xe603;" 
d="M177 671l51 52l621 -621l-52 -51zM598 472q-17 17 -39 26t-46 9q-9 0 -17 -1l136 -136q1 8 1 17q0 24 -9 46t-26 39zM421 581q43 21 92 21q89 0 152 -63t63 -152q0 -49 -21 -92l87 -88q46 38 87.5 83.5t60.5 72.5l19 27q-4 6 -10.5 16.5t-30 40.5t-49.5 57.5t-67.5 61
t-84.5 58t-100 41t-115 16.5q-79 0 -154 -30zM603 192q-43 -20 -90 -20q-89 0 -152 63t-63 152q0 47 20 90l-97 97q-95 -78 -154 -182l-3 -5q5 -6 12.5 -16.5t33.5 -41.5t53.5 -58.5t69 -61.5t84 -58.5t95.5 -41.5t104 -17q74 0 151 35zM427 301q17 -17 39.5 -26t46.5 -9
q7 0 15 1l-135 135q-1 -8 -1 -15q0 -24 9 -46.5t26 -39.5z" />
    <glyph glyph-name="bell-01" unicode="&#xe669;" 
d="M633 92q-14 0 -24.5 -9t-12.5 -22h-3q-11 -23 -33 -36.5t-48 -13.5t-48 13.5t-33 36.5h-2q-2 13 -12.5 22t-24.5 9t-24.5 -9t-12.5 -22h-4q2 -8 5 -16q1 -4 3 -7q19 -46 60.5 -74t92.5 -28q50 0 90.5 26.5t60.5 70.5q5 7 7 16l3 12h-4q-2 13 -12 22t-24 9zM908 228h-675
q5 23 7 34q40 226 111.5 335t162.5 109q158 0 248 -359v6q0 -18 12 -30t29.5 -12t29.5 12t12 30h2q-38 126 -64 193q-85 215 -229 240v4q0 18 -12.5 30t-29.5 12t-29.5 -12t-12.5 -30v-3q-85 -13 -141.5 -77t-94.5 -170q-37 -101 -93 -312h-25q-17 0 -29 -12.5t-12 -29.5
t12 -29.5t29 -12.5h792q17 0 29.5 12.5t12.5 29.5t-12.5 29.5t-29.5 12.5z" />
    <glyph glyph-name="cancel-01" unicode="&#xe65d;" 
d="M173.5 688q-82.5 -92 -107.5 -210.5t12.5 -234t129.5 -198t210.5 -107.5t234 12.5t198.5 129.5q42 47 71 106h-1q12 23 -2 44q-9 15 -27 18.5t-33 -6.5q-10 -6 -15 -18h-1q-23 -48 -57 -86q-67 -75 -160 -105t-189.5 -10t-170.5 87t-104.5 160t-10.5 189.5t87 170.5
t160.5 104.5t189.5 10.5t170 -87q57 -51 88 -118.5t34 -141.5q-1 -14 7 -25q9 -15 27 -19t33 6q20 13 19 38h1q-3 92 -41.5 176.5t-109.5 148.5q-92 82 -210.5 107t-234 -12.5t-198 -129.5zM698.5 566.5q-12.5 12.5 -30.5 12.5t-30 -12l-125 -124l-124 125q-13 12 -31 12
t-30.5 -12.5t-12.5 -30.5t12 -31l125 -124l-124 -124q-12 -13 -12 -31t12.5 -30.5t30.5 -12.5t31 12l124 125l124 -123q12 -13 29.5 -13.5t30.5 12.5t13 30.5t-13 30.5l-124 124l124 125q13 12 13 29.5t-12.5 30z" />
    <glyph glyph-name="warning" unicode="&#xe66a;" 
d="M845 20h-4h-658q-71 1 -97.5 50t10.5 109l317 509q37 60 94 60t94 -60l256 -398q7 -11 4 -24t-14 -20q-8 -5 -17 -5q-18 0 -27 14l-256 399q-19 30 -40.5 30t-39.5 -30l-317 -508q-18 -29 -9 -45t42 -17h658h5q33 0 39 10q5 9 -11 34l-17 27q-7 11 -4 24t15 20q7 5 16 5
q18 0 27 -16l17 -26q36 -58 13 -99q-24 -43 -96 -43v0zM508 128q-13 0 -22.5 9.5t-9.5 22.5v54q0 13 9 22.5t22 9.5h1q13 0 22 -9.5t10 -22.5v-54q0 -13 -9.5 -22.5t-22.5 -9.5v0zM508 261q-13 0 -22.5 9t-9.5 22v271q0 13 9.5 22.5t22.5 9.5t22.5 -9.5t9.5 -22.5v-271
q0 -13 -9.5 -22t-22.5 -9z" />
    <glyph glyph-name="radio-selected" unicode="&#xe667;" 
d="M512 774q162 0 276 -114t114 -276t-114 -276t-276 -114t-276 114t-114 276t114 276t276 114zM512 834q-122 0 -226 -60t-164 -164t-60 -226t60 -226t164 -164t226 -60t226 60t164 164t60 226t-60 226t-164 164t-226 60v0zM788 558l-324 -390l-237 204l39 45l189 -162
l285 342z" />
    <glyph glyph-name="radio-normal" unicode="&#xe668;" 
d="M512 774q162 0 276 -114t114 -276t-114 -276t-276 -114t-276 114t-114 276t114 276t276 114zM512 834q-122 0 -226 -60t-164 -164t-60 -226t60 -226t164 -164t226 -60t226 60t164 164t60 226t-60 226t-164 164t-226 60v0z" />
    <glyph glyph-name="checkbox-selected-01" unicode="&#xe682;" 
d="M715 753q72 0 123 -51.5t51 -122.5v-407q0 -72 -51 -123t-123 -51h-406q-72 0 -123 51t-51 123v407q0 71 51 122.5t123 51.5h406zM715 811h-406q-96 0 -164 -68.5t-68 -163.5v-407q0 -96 68 -164t164 -68h406q96 0 164 68t68 164v407q0 97 -67.5 164.5t-164.5 67.5v0z
M785 547l-314 -378l-229 198l38 43l183 -157l275 331z" />
    <glyph glyph-name="checkbox-normal-01" unicode="&#xe683;" 
d="M722 774q74 0 127 -53t53 -127v-420q0 -74 -53 -127t-127 -53h-420q-74 0 -127 53t-53 127v420q0 74 53 127t127 53h420zM722 834h-420q-99 0 -169.5 -70.5t-70.5 -169.5v-420q0 -99 70.5 -169.5t169.5 -70.5h420q99 0 169.5 70.5t70.5 169.5v420q0 99 -70.5 169.5
t-169.5 70.5v0z" />
    <glyph glyph-name="more" unicode="&#xe604;" horiz-adv-x="1346" 
d="M83 384q0 45 32.5 77.5t78 32.5t77.5 -32.5t32 -77.5t-32 -77.5t-77.5 -32.5t-78 32.5t-32.5 77.5v0v0zM675 494q45 0 77.5 -32.5t32.5 -77.5t-32.5 -77.5t-78 -32.5t-77.5 32.5t-32 77.5t32 77.5t78 32.5v0v0zM1046 384q0 45 32.5 77.5t78 32.5t77.5 -32.5t32 -77.5
t-32 -77.5t-78 -32.5q-43 0 -76.5 32.5t-33.5 77.5v0v0zM1046 384z" />
    <glyph glyph-name="arrow-right" unicode="&#xe605;" 
d="M331 833l-62 -62l388 -388l-377 -377l62 -62l439 439z" />
    <glyph glyph-name="arrow-down-03" unicode="&#xe675;" 
d="M956 581l-62 67l-388 -388l-376 372l-62 -62l376 -372l62 -67z" />
    <glyph glyph-name="document-01" unicode="&#xe67f;" 
d="M576 370h-324q-5 0 -9.5 4.5t-4.5 9.5v4q0 5 4.5 9.5t9.5 4.5h324q5 0 9.5 -4.5t4.5 -9.5v-4q0 -14 -14 -14v0zM576 264h-324q-5 0 -9.5 4t-4.5 10v0q0 5 4.5 9.5t9.5 4.5h324q5 0 9.5 -4.5t4.5 -9.5v0q0 -6 -4.5 -10t-9.5 -4v0zM576 160h-324q-5 0 -9.5 4.5t-4.5 10.5v0
q0 5 4.5 9.5t9.5 4.5h324q5 0 9.5 -4.5t4.5 -9.5v0q0 -6 -4.5 -10.5t-9.5 -4.5v0zM501 498v0v0v0v0zM711 488v0v0q-1 6 -3 7l-8 7l-206 199q-3 3 -7 3v0h-352q-3 0 -7 -2.5t-4 -7.5v-758q0 -2 4 -6t7 -4h569q3 0 7 3t4 7v552h-4v0zM498 502v156l163 -160h-160q-2 0 -2.5 0.5
t-0.5 3.5v0zM679 -46h-526q-3 0 -3.5 0.5t-0.5 3.5v711q2 6 4 7h316v-196q0 -3 3 -6.5t8 -3.5h203v-512q0 -4 -4 -4v0zM892 626q0 3 -3 7l-7 7l-206 199q-4 4 -8 4v0h-352q-3 0 -6.5 -3t-3.5 -8v-96h28v71q2 6 4 7h316v-195q0 -4 3 -7.5t8 -3.5h203v-512q0 -3 -0.5 -3.5
t-3.5 -0.5h-117v-24h138q4 0 7.5 2.5t3.5 7.5l-4 548v0v0v0zM843 636h-157q-2 0 -2.5 0.5t-0.5 3.5v160zM772 313v0q0 5 -4.5 9.5t-10.5 4.5h-17v-25h17q15 0 15 11zM772 420q0 5 -4.5 9.5t-10.5 4.5h-17v-29h17q8 0 11.5 3.5t3.5 11.5v0zM772 523q0 5 -4.5 9.5t-10.5 4.5
h-17v-29h17q8 0 11.5 3.5t3.5 11.5v0z" />
    <glyph glyph-name="document-02" unicode="&#xe680;" 
d="M691 448h-379q-7 0 -12 5t-5 11v5q0 6 5 11t12 5h379q7 0 12 -5t5 -11v-5q0 -6 -5 -11t-12 -5v0zM691 327h-379q-7 0 -12 5t-5 11v0q0 7 5 12t12 5h379q7 0 12 -5t5 -12v0q0 -6 -5 -11t-12 -5v0zM691 206h-379q-7 0 -12 5t-5 11v0q0 7 5 12t12 5h379q7 0 12 -5t5 -12v0
q0 -6 -5 -11t-12 -5v0zM604 602v0v0v0v0zM850 590v0v0q0 8 -4 8l-8 8l-243 234q-4 4 -8 4v0h-413q-4 0 -8.5 -3.5t-4.5 -8.5v-889q0 -3 5 -8t8 -5h668q4 0 8 3.5t4 9.5v647h-4v0zM600 606v184l192 -188h-188q-3 0 -3.5 0.5t-0.5 3.5v0zM813 -36h-618q-3 0 -3.5 0.5t-0.5 3.5
v835q0 8 4 8h371v-230q0 -4 3.5 -8t9.5 -4h238v-601q0 -4 -4 -4v0v0z" />
    <glyph glyph-name="arrow-down-02" unicode="&#xe652;" 
d="M758 311h-173v460q0 16 -11.5 33t-25.5 17h-72q-14 0 -25.5 -17t-11.5 -33v-460h-173q-13 0 -19.5 -15.5t2.5 -26.5l246 -310q7 -9 17 -9.5t17 7.5l246 313q9 11 2.5 26t-19.5 15z" />
    <glyph glyph-name="arrow-up" unicode="&#xe653;" 
d="M775 492l-246 308q-7 8 -17 8t-17 -8l-246 -308q-8 -10 -2.5 -22.5t19.5 -12.5h173v-473q0 -15 11 -26t26 -11h72q15 0 26 11t11 26v473h173q14 0 19.5 12.5t-2.5 22.5z" />
    <glyph glyph-name="weixinushentubiao01" unicode="&#xe606;" 
d="M418 719q0 -39 27.5 -67t66.5 -28t66.5 28t27.5 67t-27.5 66.5t-66.5 27.5t-66.5 -27.5t-27.5 -66.5zM515 -63h-6q-30 0 -51 21t-21 52v457q0 30 21 51.5t51 21.5h6q30 0 51 -21.5t21 -51.5v-457q0 -31 -21 -52t-51 -21z" />
    <glyph glyph-name="flow" unicode="&#xe607;" 
d="M810 346q-2 48 -37 79.5t-86 31.5v0q-51 -4 -81 -38q-1 -2 -5 -6t-5 -6l-156 15q-3 43 -37 73l65 118q8 -3 25 -3q49 0 83.5 34.5t34.5 81.5q0 49 -34.5 82.5t-83.5 33.5t-83.5 -34.5t-34.5 -81.5q0 -48 33 -80l-68 -124q-4 0 -11.5 1.5t-11.5 1.5v0q-51 -4 -80 -38
q-34 -38 -30 -83q1 -46 35 -78t80 -32h5q51 4 81 37q10 10 17 26l149 -13v-5q0 -31 22 -63l-55 -100h-10q-49 0 -83.5 -34.5t-34.5 -81.5q0 -49 34.5 -82.5t83.5 -33.5t83.5 34.5t34.5 81.5q0 57 -45 90l47 83q19 -7 41 -7h5q50 4 80 38q37 33 33 82v0v0zM491 776
q20 0 35 -14.5t15 -35.5t-15 -35.5t-35.5 -14.5t-35.5 14.5t-15 35.5q2 21 17 35.5t34 14.5v0zM360 374q-15 -15 -35 -15h-3q-20 0 -34 13.5t-16 34.5q0 18 12 35q15 14 38 18q21 0 35 -13.5t15 -34.5q4 -22 -12 -38v0zM533 7q-20 0 -35 15t-15 35.5t15 35.5t35.5 15
t35.5 -15t15 -35.5t-15 -35.5t-36 -15v0zM729 309q-13 -18 -32 -18h-3q-20 0 -34 13.5t-16 34.5q0 18 13 35q14 14 37 18q21 0 35 -13.5t15 -34.5q0 -24 -15 -35v0zM729 309z" />
    <glyph glyph-name="cancel" unicode="&#xe608;" 
d="M890 -58q-27 0 -46 19l-332 332l-332 -332q-19 -19 -45.5 -19t-45.5 19t-19 45.5t19 45.5l332 332l-332 332q-19 19 -19 45.5t19 45.5t45.5 19t45.5 -19l332 -332l332 332q19 19 45.5 19t45.5 -19t19 -45.5t-19 -45.5l-332 -332l332 -332q19 -19 19 -45.5t-19 -45.5
t-45 -19v0z" />
    <glyph glyph-name="submit" unicode="&#xe609;" 
d="M365 64q-21 0 -33 12l-270 299q-13 14 -12 33t15 32q13 12 32 12q21 0 35 -16l237 -263l525 517q14 14 33 14q20 0 33.5 -14t13.5 -33.5t-14 -32.5l-560 -550q-10 -10 -33 -10h-2z" />
    <glyph glyph-name="arrow-back" unicode="&#xe60a;" 
d="M497 701h-88v87q0 23 -20 33t-38 -4l-79 -62l-100 -79q-14 -10 -14 -28t14 -28l101 -79l78 -62q18 -14 38 -4t20 33v91h88q110 0 189 -82.5t79 -194.5t-79 -194.5t-189 -82.5h-113q-21 0 -36 -14.5t-15 -35.5t15 -35.5t36 -14.5h113q99 0 184.5 51.5t135 139t49.5 187.5
t-49.5 187t-135 139t-184.5 52z" />
    <glyph glyph-name="flow-02" unicode="&#xe65e;" horiz-adv-x="1265" 
d="M861 723h-98q-77 0 -131.5 -54.5t-54.5 -130.5q0 -33 -23 -56.5t-56 -23.5h-80q-17 47 -57.5 76.5t-91.5 29.5q-66 0 -112.5 -46.5t-46.5 -112t46.5 -112.5t112.5 -47q51 0 91.5 29.5t57.5 76.5h80q33 0 56 -23t23 -56q0 -77 54.5 -131t131.5 -54h98q16 -47 57 -76.5
t92 -29.5q65 0 112 46.5t47 112t-47 112t-112 46.5q-51 0 -92 -29.5t-57 -76.5h-98q-33 0 -56.5 23.5t-23.5 56.5q0 77 -56 132q56 55 56 133q0 32 23.5 55.5t56.5 23.5h98q16 -47 57 -76.5t92 -29.5q65 0 112 46.5t47 112.5t-47 112.5t-112 46.5q-51 0 -92 -29.5t-57 -76.5
v0zM1063 140q0 -21 -15.5 -36.5t-37.5 -15.5t-37.5 15.5t-15.5 37t15.5 37t37.5 15.5t37.5 -15.5t15.5 -37.5v0zM216 405q0 22 15.5 37.5t37.5 15.5t37.5 -15.5t15.5 -37.5t-15.5 -37.5t-37.5 -15.5t-37.5 15.5t-15.5 37.5v0zM1063 670q0 -22 -15.5 -37.5t-37.5 -15.5
t-37.5 15.5t-15.5 37.5t15.5 37.5t37.5 15.5t37.5 -15.5t15.5 -37.5v0z" />
    <glyph glyph-name="connect-01" unicode="&#xe66b;" horiz-adv-x="1205" 
d="M813 696h-443q-17 47 -57.5 76.5t-91.5 29.5q-66 0 -112.5 -46.5t-46.5 -112t46.5 -112t112.5 -46.5q51 0 91.5 29.5t57.5 75.5h443q17 -46 57.5 -75.5t91.5 -29.5q66 0 112.5 46.5t46.5 112t-46.5 112t-112.5 46.5q-51 0 -91.5 -29.5t-57.5 -76.5v0zM168 643
q0 22 15.5 37.5t37.5 15.5t37.5 -15.5t15.5 -37t-15.5 -37.5t-37.5 -16t-37.5 16t-15.5 37v0zM1015 643q0 -21 -15.5 -37t-37.5 -16t-37.5 16t-15.5 37.5t15.5 37t37.5 15.5t37.5 -15.5t15.5 -37.5v0zM221 273q-66 0 -112.5 -46.5t-46.5 -112.5t46.5 -112.5t112.5 -46.5
q51 0 91.5 29.5t57.5 76.5h443q17 -47 57.5 -76.5t91.5 -29.5q66 0 112.5 46.5t46.5 112.5t-46.5 112.5t-112.5 46.5q-51 0 -91.5 -29.5t-57.5 -76.5h-443q-17 47 -57.5 76.5t-91.5 29.5v0zM168 114q0 22 15.5 37.5t37.5 15.5t37.5 -15.5t15.5 -37.5t-15.5 -37.5
t-37.5 -15.5t-37.5 15.5t-15.5 37.5v0zM1015 114q0 -22 -15.5 -37.5t-37.5 -15.5t-37.5 15.5t-15.5 37.5t15.5 37.5t37.5 15.5t37.5 -15.5t15.5 -37.5v0z" />
    <glyph glyph-name="yonghurenwu" unicode="&#xe654;" horiz-adv-x="1088" 
d="M969 110q-303 118 -319 169v46q47 47 68 123q31 22 31 61q0 26 -17 46v102q0 82 -47.5 129.5t-144.5 47.5q-95 0 -143.5 -47.5t-48.5 -129.5v-102q-17 -20 -17 -46q0 -39 31 -61q21 -76 68 -123v-46q-16 -51 -319 -169q-21 -7 -21 -30v-114q0 -13 9.5 -22.5t22.5 -9.5
h836q13 0 22.5 9.5t9.5 22.5v114q0 23 -21 30v0z" />
    <glyph glyph-name="calendar-01" unicode="&#xe65f;" 
d="M408 710h202v-37h-202v37zM812 710h-111v-37h111q19 0 32.5 -13.5t13.5 -33.5v-83v0h-692v83q0 20 13.5 33.5t32.5 13.5h111v37h-111q-35 0 -59.5 -24.5t-24.5 -59.5v-568q0 -35 25 -59.5t59 -24.5h600q34 0 59 24.5t25 59.5v568q0 35 -25 59.5t-59 24.5zM812 11h-600
q-19 0 -32.5 14t-13.5 33v447h692h1v-447q0 -19 -14 -33t-33 -14zM365 607v0q-12 0 -20 7.5t-8 19.5v116q0 11 8 19t20 8v0q11 0 19 -7.5t8 -19.5v-116q0 -12 -8 -19.5t-19 -7.5zM659 606v0q-11 0 -19 8t-8 19v116q0 12 8 20t19 8v0q12 0 20 -8t8 -20v-116q0 -11 -8 -19
t-20 -8zM618 325h-53q-5 0 -9 3.5t-4 8.5v54q0 5 4 8.5t9 3.5h53q5 0 8.5 -3.5t3.5 -8.5v-54q0 -5 -3.5 -8.5t-8.5 -3.5zM776 325h-53q-5 0 -8.5 3.5t-3.5 8.5v54q0 5 3.5 8.5t8.5 3.5h53q5 0 8.5 -3.5t3.5 -8.5v-54q0 -5 -3.5 -8.5t-8.5 -3.5zM301 218h-53q-5 0 -8.5 3.5
t-3.5 8.5v53q0 5 3.5 9t8.5 4h53q5 0 8.5 -4t3.5 -9v-53q0 -5 -3.5 -8.5t-8.5 -3.5zM459 218h-53q-5 0 -8.5 3.5t-3.5 8.5v53q0 5 3.5 9t8.5 4h53q5 0 9 -4t4 -9v-53q0 -5 -4 -8.5t-9 -3.5zM618 218h-53q-5 0 -9 3.5t-4 8.5v53q0 5 4 9t9 4h53q5 0 8.5 -4t3.5 -9v-53
q0 -5 -3.5 -8.5t-8.5 -3.5zM776 218h-53q-5 0 -8.5 3.5t-3.5 8.5v53q0 5 3.5 9t8.5 4h53q5 0 8.5 -4t3.5 -9v-53q0 -5 -3.5 -8.5t-8.5 -3.5zM301 111h-53q-5 0 -8.5 3.5t-3.5 8.5v53q0 5 3.5 8.5t8.5 3.5h53q5 0 8.5 -3.5t3.5 -8.5v-53q0 -5 -3.5 -8.5t-8.5 -3.5v0zM459 111
h-53q-5 0 -8.5 3.5t-3.5 8.5v53q0 5 3.5 8.5t8.5 3.5h53q5 0 9 -3.5t4 -8.5v-53q0 -5 -4 -8.5t-9 -3.5v0zM618 111h-53q-5 0 -9 3.5t-4 8.5v53q0 5 4 8.5t9 3.5h53q5 0 8.5 -3.5t3.5 -8.5v-53q0 -5 -3.5 -8.5t-8.5 -3.5v0z" />
    <glyph glyph-name="task" unicode="&#xe660;" 
d="M827 -55h-630q-21 0 -34.5 14t-13.5 35v647q0 21 13.5 34.5t34.5 13.5h100v-138h426v138h101q20 0 34 -13.5t14 -34.5v-647q3 -19 -11 -34t-34 -15zM197 655q-5 0 -9.5 -4.5t-4.5 -9.5v-647q0 -6 4.5 -10t9.5 -4h630q5 0 9.5 4t4.5 10v647q0 5 -4.5 9.5t-9.5 4.5h-66
v-139h-495v139h-69zM702 568h-380v163h55v7q0 26 19 46t47 20h142q26 0 45.5 -19t19.5 -47v-7h56v-163h-4zM356 603h312v93h-56v42q0 13 -9 22t-22 9h-142q-13 0 -22 -9t-9 -22v-42h-55v-93h3zM512 617q-29 0 -49 20t-20 49t20 49t49 20t49 -20t20 -49q0 -31 -19 -50
t-50 -19zM512 721q-16 0 -25.5 -9.5t-9.5 -25.5t9.5 -25.5t25.5 -9.5q14 0 24.5 9t10.5 26q0 13 -11 24t-24 11zM715 399l-226 -274q0 -4 -8 0l-163 134q-2 2 -2 5.5t2 6.5l29 34q2 2 5.5 2t5.5 -2l123 -103l191 234q4 10 11 3l32 -26q5 -6 0 -14v0z" />
    <glyph glyph-name="form" unicode="&#xe661;" 
d="M518 765q-21 0 -35 -14.5t-14 -34.5l97 2q-1 20 -15 33.5t-33 13.5v0zM356 657q-12 0 -21 9t-9 21.5t9 21.5t21 9h52q2 46 33.5 77t76.5 31t77 -31.5t33 -76.5h51q13 0 22 -9t9 -21.5t-9 -21.5t-22 -9h-323zM313 458q-12 0 -21 9t-9 21.5t9 21.5t21 9h409q13 0 22 -9
t9 -21.5t-9 -21.5t-22 -9h-409zM313 284q-12 0 -21 8.5t-9 21t9 21.5t21 9h409q13 0 22 -9t9 -21.5t-9 -21t-22 -8.5h-409zM313 109q-12 0 -21 9t-9 21.5t9 21t21 8.5h409q13 0 22 -8.5t9 -21t-9 -21.5t-22 -9h-409zM159 -66q-21 0 -36 15t-15 36v683q0 21 15 36t36 15h105
q13 0 21.5 -9t8.5 -21.5t-8.5 -21.5t-21.5 -9h-95v-663h698v663h-94q-12 0 -21 9t-9 21.5t9 21.5t21 9h104q20 0 35 -15t15 -36v-683q0 -21 -14.5 -36t-35.5 -15h-718z" />
    <glyph glyph-name="text" unicode="&#xe643;" 
d="M536 547v-323q0 -19 28.5 -46t40.5 -28q6 -1 -52.5 -1h-118.5l-61 1q3 1 8 3t17.5 9t22.5 15t17.5 20.5t7.5 25.5q-1 45 0 325v0h-93q-30 0 -59 -18t-29 -48v138h449v-136q-1 2 -3.5 6.5t-12 15.5t-21 19.5t-30.5 15.5t-41 7l-70 -1v0zM805 267h-45v47q0 9 -7 16t-16 7
t-16 -7t-7 -16v-47h-44q-10 0 -16.5 -7t-6.5 -17t6.5 -16.5t16.5 -6.5h44v-47q0 -10 7 -17t16 -7t16 7t7 17v47h45q9 0 15.5 6.5t6.5 16.5t-6.5 17t-15.5 7zM895 595q0 39 -15.5 55t-52.5 16h-630q-37 0 -52.5 -16t-15.5 -55v-422q0 -39 15.5 -55t52.5 -16h630h14h12.5
t10 0.5t9 1.5t6.5 2.5t6.5 4t4 6t3 8t1.5 10.5t1 14v446zM962 642v-516q0 -39 -26.5 -66.5t-63.5 -27.5h-720q-37 0 -63.5 27.5t-26.5 66.5v516q0 39 26.5 66.5t63.5 27.5h720q37 0 63.5 -27.5t26.5 -66.5z" />
    <glyph glyph-name="table" unicode="&#xe644;" 
d="M800 768h-32v64h-64v-64h-384v64h-64v-64h-32q-53 0 -90.5 -37.5t-37.5 -90.5v-576q0 -53 37.5 -90.5t90.5 -37.5h576q53 0 90.5 37.5t37.5 90.5v576q0 53 -37.5 90.5t-90.5 37.5zM864 64q0 -26 -19 -45t-45 -19h-576q-26 0 -45 19t-19 45v448h704v-448zM864 576h-704v64
q0 26 19 45t45 19h32v-64h64v64h384v-64h64v64h32q26 0 45 -19t19 -45v-64zM288 32h64v96h128v-96h64v96h128v-96h64v96h64v64h-64v128h64v64h-64v96h-64v-96h-128v96h-64v-96h-128v96h-64v-96h-64v-64h64v-128h-64v-64h64v-96zM544 320h128v-128h-128v128zM352 320h128
v-128h-128v128z" />
    <glyph glyph-name="document-bill" unicode="&#xe60b;" 
d="M834 274l-61 -102h43v-31h-52v-23h52v-31h-52v-43h-47v43h-54v31h54v23h-54v31h43l-59 102h49q40 -84 43 -92v0l1.5 3t1.5 5q3 7 20 48l18 38zM739 388q-91 0 -157 -65t-66 -157q0 -93 65 -158t158 -65t158 65t65 158t-65 157.5t-158 64.5v0zM739 -37q-83 0 -142.5 59.5
t-59.5 143.5t59 143t143.5 59t143.5 -59t59 -143q0 -83 -59.5 -143t-143.5 -60v0zM198 661h425v-77h-425v77zM198 496h304v-76h-304v76zM198 330h182v-76h-182v76zM535 -19h-412v816h679v-341q19 0 48 -5v360q0 13 -9.5 22.5t-21.5 9.5h-713q-13 0 -22 -9.5t-9 -22.5v-847
q0 -12 9 -21.5t22 -9.5h470q-39 46 -41 48v0z" />
    <glyph glyph-name="plane-02" unicode="&#xe60c;" 
d="M944 796l-33 33q-7 3 -18.5 5t-39.5 -3t-46 -24l-171 -174l-478 70l-59 -56l354 -205l-129 -126l-219 -14l-42 -14l222 -124l118 -224l16 42l14 207q366 374 511 520q16 13 16 35t-8 37l-8 15v0v0zM591 302l168 -323l48 53l-40 430z" />
    <glyph glyph-name="qingjia" unicode="&#xe60d;" horiz-adv-x="1171" 
d="M900 328l-6 3l6 7q77 61 77 160q0 83 -59.5 143t-143.5 60q-85 0 -144 -59.5t-59 -143.5q0 -95 77 -160l6 -7l-6 -3q-98 -40 -157.5 -126t-59.5 -190v-70q0 -13 9 -21.5t21 -8.5h623q12 0 21 8.5t9 21.5v70q2 104 -56 190t-158 126v0zM608 494q0 70 48 118.5t118 48.5
t118 -48.5t48 -118.5t-48 -118t-118 -48t-118 48t-48 118v0zM1087 -45h-626v43q0 128 91.5 219t221.5 91t221.5 -91t91.5 -219v-43zM399 510l-130 -130l41 -31l144 144v232h-57v-215h2zM137 456q-13 57 -2.5 116t42.5 108q32 50 81 83.5t107 45.5q30 7 63 7q60 0 116 -23.5
t97 -67.5l58 21q-51 59 -122 92.5t-149 33.5q-41 0 -75 -9q-144 -32 -223 -156q-81 -123 -50 -269q22 -105 98.5 -180t181.5 -96l36 52q-97 16 -168 82t-91 160v0z" />
    <glyph glyph-name="folder-02" unicode="&#xe681;" 
d="M93 643v-708h729v708h-729zM766 289h-617v259h617v-259zM823 -66h-730v709h730v-709zM94 -65h728v707h-728v-707zM766 288h-618v260h618v-260zM149 289h616v258h-616v-258zM205 501h504v-56h-504v56zM710 444h-505v57h505v-57zM206 445h503v55h-503v-55zM205 407h504v-56
h-504v56zM710 351h-505v57h505v-57zM206 352h503v55h-503v-55zM202 833v-134h55v39h617v-613h57v708h-729zM931 125h-57v613h-616v-39h-57v135h730v-709zM875 126h55v707h-728v-133h55v39h618v-613z" />
    <glyph glyph-name="add-02" unicode="&#xe673;" 
d="M547 401v402q0 17 -18 17h-26q-6 0 -11.5 -5t-5.5 -12v-402h-398q-8 0 -12.5 -4.5t-4.5 -12.5v-26q0 -7 4.5 -12t12.5 -5h398v-386q0 -8 5 -13t12 -5h26q7 0 12.5 5t5.5 13v386h389q8 0 12.5 4.5t4.5 12.5v26q0 7 -4.5 12t-12.5 5h-389z" />
    <glyph glyph-name="enclosure-01" unicode="&#xe671;" 
d="M512 830q-92 0 -157 -62.5t-65 -149.5v-278h400v-188q0 -70 -52 -119.5t-126 -49.5t-126 43t-52 105v120h133v45h-177v-165q0 -79 65 -135t157 -56t157 62t65 150v233h-400v233q0 70 52 119.5t126 49.5t126 -43.5t52 -104.5v-121h-133v-44h177v165q0 79 -65 135t-157 56z
" />
    <glyph glyph-name="checkbox-normal" unicode="&#xe655;" 
d="M680 637q0 19 -3 41.5t-9 45.5t-17.5 38t-26.5 15h-224q-15 0 -26.5 -15t-17.5 -38t-9 -45.5t-3 -41.5h336zM905 538v-391q0 -88 -58.5 -149.5t-140.5 -61.5h-389q-82 0 -140 61.5t-58 149.5v391q0 83 54 144t132 66q28 85 95 85h224q67 0 95 -85q78 -5 132 -66t54 -144
v0zM175 147q0 -64 42 -109.5t100 -45.5h389q59 0 101 45.5t42 109.5v391q0 56 -33.5 99t-82.5 53q3 -28 3 -53h28v-56h-504v56h28q0 25 4 53q-50 -10 -83.5 -53t-33.5 -99v-391z" />
    <glyph glyph-name="plane-03" unicode="&#xe656;" horiz-adv-x="1230" 
d="M1140 798l-11 15q-10 7 -22 7q-6 0 -12 -2l-1009 -312q-22 -8 -23.5 -31.5t19.5 -33.5l348 -169l-5 -164q-1 -22 19 -32q8 -5 17 -5q11 0 20 6l160 84q13 8 15.5 23t-6.5 27q-10 15 -29 15q-11 0 -20 -6l-101 -46l3 119q1 23 -20 33l-290 141l872 266l-91 -691l-227 136
q-9 5 -19 5q-20 0 -31 -18q-8 -12 -4 -26.5t17 -21.5l276 -165q9 -5 19 -5q8 0 16 4q18 9 20 28l102 802q0 9 -3 17zM995 599q11 11 11 26.5t-11 26t-26 10.5t-26 -10l-367 -316q-11 -11 -11 -26t11 -25.5t26 -10.5t26 10z" />
    <glyph glyph-name="end" unicode="&#xe623;" 
d="M512 834q-92 0 -175 -35.5t-143.5 -96t-96 -143.5t-35.5 -174.5t35.5 -175t96 -143.5t143.5 -96t175 -36t175 36t143.5 96t96 143.5t35.5 175t-35.5 174.5t-96 143.5t-143.5 96t-175 35.5zM512 744q98 0 180.5 -48t131 -131t48.5 -180.5t-48.5 -180.5t-131 -131.5
t-180.5 -48.5t-180.5 48.5t-131 131.5t-48.5 180.5t48.5 180.5t131 131t180.5 48z" />
    <glyph glyph-name="sorting" unicode="&#xe624;" 
d="M817 159v656q0 8 -5.5 13.5t-12.5 5.5h-80q-8 0 -13.5 -5.5t-5.5 -13.5v-637q0 -8 -5.5 -13.5t-12.5 -5.5h-81q-13 0 -18 -11.5t5 -20.5l158 -152q5 -5 12.5 -5t13.5 5l158 152q9 9 4.5 20.5t-17.5 11.5h-100zM384 -66h-234q-18 0 -26 15t1 29l204 294h-179
q-12 0 -20.5 8t-8.5 19.5t8.5 20t20.5 8.5h234q17 0 25.5 -15t-1.5 -29l-204 -294h180q12 0 20.5 -8t8.5 -19.5t-8.5 -20t-20.5 -8.5v0zM197 609l70 134l69 -134h-139zM468 481l-175 337q-8 16 -26 16t-26 -16l-176 -337q-5 -10 -1.5 -21.5t14.5 -16.5q6 -3 13 -3
q18 0 26 16l51 97h198l50 -97q6 -11 17.5 -14.5t22 1.5t14.5 16.5t-2 21.5v0z" />
    <glyph glyph-name="group" unicode="&#xe63d;" 
d="M440 352h-324q-15 0 -25.5 -10.5t-10.5 -25.5v-324q0 -15 10.5 -25.5t25.5 -10.5h324q15 0 25.5 10.5t10.5 25.5v324q0 15 -10.5 25.5t-25.5 10.5v0zM419 13h-281v281h281v-281zM908 352h-324q-15 0 -25.5 -10.5t-10.5 -25.5v-324q0 -15 10.5 -25.5t25.5 -10.5h324
q15 0 25.5 10.5t10.5 25.5v324q0 15 -10.5 25.5t-25.5 10.5v0zM886 13h-280v281h280v-281zM440 820h-324q-15 0 -25.5 -11t-10.5 -25v-324q0 -15 10.5 -25.5t25.5 -10.5h324q15 0 25.5 10.5t10.5 25.5v324q0 14 -10.5 25t-25.5 11v0zM419 481h-281v281h281v-281zM746 820
q-82 0 -140 -58t-58 -140t58 -140t140 -58t140 58t58 140t-58 140t-140 58zM746 762q58 0 99 -41t41 -99t-41 -99.5t-99 -41.5t-99 41.5t-41 99.5t41 99t99 41z" />
    <glyph glyph-name="building" unicode="&#xe645;" 
d="M673 29v516h193v-514h-193v-2zM158 29v709h450v-707h-450v-2zM930 29v579h-257v194h-579v-771h-32v-64h900v64h-32v-2v0zM416 320h130v-96h-130v96zM223 320h130v-96h-130v96zM737 320h64v-96h-64v96zM737 479h64v-96h-64v96zM416 479h130v-96h-130v96zM223 479h130v-96
h-130v96zM416 640h130v-95h-130v95zM223 640h130v-95h-130v95z" />
    <glyph glyph-name="start" unicode="&#xe642;" 
d="M512 834q-92 0 -175 -35.5t-143.5 -96t-96 -143.5t-35.5 -174.5t35.5 -175t96 -143.5t143.5 -96t175 -36t175 36t143.5 96t96 143.5t35.5 175t-35.5 174.5t-96 143.5t-143.5 96t-175 35.5zM512 774q106 0 195.5 -52t142 -142t52.5 -196t-52.5 -195.5t-142 -142
t-195.5 -52.5t-195.5 52.5t-142 142t-52.5 195.5t52.5 196t142 142t195.5 52z" />
    <glyph glyph-name="upload" unicode="&#xe646;" horiz-adv-x="1170" 
d="M616 398v-458h-76v458l-107 -105l-54 53l199 196l199 -196l-54 -53zM866 580q-13 108 -96 181t-195 73t-195 -73t-97 -181q-93 -6 -157.5 -73.5t-64.5 -160.5q0 -97 69.5 -166t168.5 -69h129v73h-129q-68 0 -116.5 47.5t-48.5 114.5q0 64 44.5 111t109.5 51l61 4l7 60
q10 81 72.5 135.5t146 54.5t146 -54.5t72.5 -135.5l8 -60l60 -4q65 -4 109.5 -51t44.5 -111q0 -67 -48.5 -114.5t-116.5 -47.5h-128v-73h128q99 0 169 69t70 166q0 93 -64.5 160.5t-158.5 73.5z" />
    <glyph glyph-name="time-01" unicode="&#xe647;" horiz-adv-x="1025" 
d="M762 363h-230v230q0 12 -9 21t-21 9t-21 -9t-9 -21v-260q0 -12 9 -21t21 -9h260q12 0 21 9t9 21t-9 21t-21 9zM513 -66q-92 0 -176 35q-80 34 -143 97q-62 62 -96 143q-35 84 -35 175t35 175q34 81 96.5 143t142.5 97q84 35 175.5 35t175.5 -35q80 -34 143 -97
q62 -62 96 -143q36 -84 36 -175q0 -124 -64 -230q-10 -17 -29 -17q-10 0 -18 5q-12 7 -15.5 21t3.5 26q54 90 54 195q0 78 -30 148q-29 69 -82 121.5t-121 81.5q-71 30 -148.5 30t-148.5 -30q-68 -29 -121 -81.5t-81 -121.5q-30 -70 -30 -148t29 -148q29 -69 82 -121.5
t121 -81.5q71 -30 149 -30q114 0 209 63q9 6 19 6q19 0 29 -16q8 -12 5 -26t-15 -22q-112 -74 -247 -74z" />
    <glyph glyph-name="checkbox-selected" unicode="&#xe648;" 
d="M692 654q-1 20 -4 44t-9.5 48.5t-18.5 40.5t-28 16h-240q-16 0 -28 -16t-18.5 -40.5t-9.5 -48.5t-4 -44h360zM931 548v-417q0 -93 -62 -159t-150 -66h-414q-88 0 -150 66t-62 159v417q0 89 57.5 154t140.5 71q31 90 101 90h240q70 0 101 -90q83 -6 140.5 -71t57.5 -154v0
zM153 131q0 -68 44.5 -117t107.5 -49h414q63 0 107.5 49t44.5 117v417q0 60 -35.5 106t-88.5 57q4 -31 4 -57h30v-60h-538v60h30q0 26 4 57q-53 -11 -88.5 -57t-35.5 -106v-417zM804 455l-318 -382l-233 199l39 45l187 -159l279 335z" />
    <glyph glyph-name="gateway-02" unicode="&#xe649;" 
d="M512 834l-450 -450l450 -450l450 450zM512 749l365 -365l-365 -365l-365 365zM634 554l-119 -119l-122 122q-5 5 -13 5t-13 -5l-27 -27q-5 -5 -5 -13t5 -13l122 -122l-120 -120q-5 -5 -5 -13t5 -13l27 -27q5 -5 13 -5t13 5l120 120l117 -117q5 -5 13 -5t13 5l27 27
q5 5 5 13t-5 13l-117 117l119 119q5 5 5 13t-5 13l-26 27q-6 5 -14 5t-13 -5z" />
    <glyph glyph-name="gateway-03" unicode="&#xe64a;" 
d="M498 834l-436 -464l464 -436l436 464zM501 749l376 -354l-354 -376l-376 354zM512 594q-85 0 -145.5 -60t-60.5 -145.5t60.5 -146t145.5 -60.5t145.5 60.5t60.5 146t-60.5 145.5t-145.5 60zM512 534q60 0 103 -42.5t43 -103t-43 -103.5t-103 -43t-103 43t-43 103.5
t43 103t103 42.5z" />
    <glyph glyph-name="flow-01" unicode="&#xe64b;" 
d="M930 799h-410v-99h-124v-268l-150 149l-180 -180l180 -179l150 149v-286v0v-54h124v-96h410v218h-410v-68h-70v562h70v-66h410v218zM872 96v-103h-295v103h295zM246 500l99 -99l-99 -98l-99 98zM872 742v-103h-295v103h295z" />
    <glyph glyph-name="user-01" unicode="&#xe64c;" 
d="M507 359q-82 0 -139.5 58t-57.5 140t57.5 139.5t139.5 57.5t140 -57.5t58 -139.5t-58 -140t-140 -58zM642 323q62 36 98.5 98t36.5 136q0 111 -79 190t-191 79t-191 -79t-79 -190q0 -75 38 -138t101 -98q-103 -41 -167.5 -134t-64.5 -208q0 -15 10.5 -26t26 -11t26 11
t10.5 26v0q0 122 86.5 208.5t208.5 86.5q121 0 207 -84.5t88 -205.5v-5q0 -15 10.5 -26t26 -11t26 11t10.5 26q0 116 -66 210t-172 134z" />
    <glyph glyph-name="gateway" unicode="&#xe64d;" 
d="M512 834l-450 -450l450 -450l450 450zM512 749l365 -365l-365 -365l-365 365zM718 422h-168v172q0 8 -5.5 13.5t-13.5 5.5h-37q-8 0 -13.5 -5.5t-5.5 -13.5v-172h-169q-8 0 -13.5 -5.5t-5.5 -13.5v-38q0 -7 5.5 -12.5t13.5 -5.5h169v-165q0 -8 5.5 -13.5t13.5 -5.5h37
q8 0 13.5 5.5t5.5 13.5v165h168q8 0 13.5 5.5t5.5 12.5v38q0 8 -5.5 13.5t-13.5 5.5z" />
    <glyph glyph-name="connect" unicode="&#xe64e;" horiz-adv-x="1025" 
d="M440 648l10 -59l33 6l-10 58q12 5 22 13l48 -43l22 25l-47 43q13 22 13 46q0 38 -26.5 64t-63.5 26t-63.5 -26t-26.5 -63.5t27 -63.5q25 -26 62 -26zM218 408l40 54l-26 20l-41 -54q-19 9 -39 9q-37 0 -63.5 -26.5t-26.5 -63.5t26.5 -63.5t63.5 -26.5t63.5 26.5
t26.5 63.5q0 35 -24 61zM439 441q-22 -22 -25 -55l-47 -4l3 -33l47 4q7 -23 22 -39q27 -27 64 -27t64 27q16 16 22 40l65 -6l3 33l-65 6q-3 32 -25 54q-27 26 -64 26t-64 -26zM577 114h-0.5h-0.5l-12 54l-32 -7l11 -54q-14 -5 -26 -17l-2 2l-20 -26l2 -2q-10 -20 -10 -40
q0 -37 26.5 -63.5t64 -26.5t63.5 26.5t26 63.5t-26 63.5t-64 26.5zM935.5 410.5q-26.5 26.5 -63.5 26.5q-29 0 -54 -19l-48 44l-22 -25l48 -43q-14 -22 -14 -47q0 -29 19 -54l-13 -14l24 -22l13 14q22 -14 47 -14q37 0 63.5 26.5t26.5 63.5t-26.5 63.5zM652 569l-55 49
l-22 -24l55 -49zM405 134l57 -43l20 26l-57 43zM315 202l57 -43l20 26l-57 44zM226 270l57 -43l20 27l-57 43zM712 196l24 -22l48 52l-24 22zM636 113l24 -23l48 53l-24 22zM523 202l33 6l-15 70l-32 -7zM695 345l71 -6l3 33l-71 6zM490 554l-33 -6l12 -70l33 6zM258 340
l71 6l-3 33l-71 -7zM325 553l-26 20l-43 -58l27 -19zM392 643l-27 20l-42 -57l27 -20zM738 491l-54 49l-22 -25l54 -49z" />
    <glyph glyph-name="code" unicode="&#xe64f;" 
d="M672 291l-160 -93l-160 93v186l160 93l160 -93v-186zM512 23l-312 179v364l312 179l312 -179v-189l75 44v186l-387 227l-387 -227v-446l387 -227l231 134l-75 45z" />
    <glyph glyph-name="uesr" unicode="&#xe63e;" 
d="M128 -68q-29 0 -48.5 19.5t-19.5 48.5v107q0 22 11.5 39.5t30.5 24.5q235 94 269 128v17q-32 37 -60 106q-29 30 -29 77q0 33 17 56v81q0 95 57 147.5t160 52.5t160.5 -52.5t57.5 -147.5v-81q17 -34 17 -56q0 -49 -34 -77q-15 -50 -56 -106v-17q1 -1 6 -4.5t9.5 -6.5
t13.5 -8.5t20 -11t26 -13.5t34.5 -17t42.5 -19.5t53 -22.5t64 -25q19 -7 31 -24.5t12 -39.5v-107q0 -29 -20 -48.5t-48 -19.5h-777zM512 777q-76 0 -117 -37t-41 -104v-103l-4 -4q-9 -8 -9 -29.5t17 -38.5l9 -4l4 -9q24 -70 56 -102l8 -9v-55q-2 -8 -5.5 -14t-21 -20.5
t-47.5 -31.5t-90 -44.5t-143 -60.5q-4 0 -4 -9v-102q0 -3 2.5 -6t5.5 -3h764q3 0 6 3t3 6v107l-5 8q-81 32 -140.5 58.5t-90 43t-48.5 31t-22 21t-6 13.5v59l9 9q34 34 55 98l4 9l9 4q13 13 13 38q0 13 -9 30l-4 9v98q0 70 -40.5 105.5t-117.5 35.5z" />
    <glyph glyph-name="confirm-01" unicode="&#xe63f;" 
d="M119 111q-19 0 -35 14.5t-16 36.5v68q0 31 34 52q171 66 171 81v4q-18 14 -38 64q-22 21 -22 55q0 24 13 43v47q0 67 39.5 104t110 37t110 -37t39.5 -104v-51q8 -9 8 -34q0 -37 -25 -56q-15 -45 -39 -68l5 -4q0 -1 8 -5.5t20 -10.5t30.5 -15t48 -21t63.5 -25
q16 -3 25 -16.5t9 -30.5l-55 -56v56l-43 17q-21 9 -55 26l-22 17q-8 8 -34 8h-8q-47 24 -47 43v34l13 13q22 29 34 60v4q13 19 13 25v13l-5 9l-4 68q0 45 -22.5 65t-71.5 20q-94 0 -94 -85v-64l-4 -13q-4 -4 -4 -13q0 -4 8 -21l5 -4l4 -9q11 -32 38 -59l5 -5l4 -42
q-2 -9 -7.5 -16t-24 -21t-62 -35t-111.5 -48v-60h346l55 -55h-410zM939 405l-17 22q-7 6 -15.5 6t-14.5 -6l-273 -273l-128 128q-7 6 -15.5 6t-14.5 -6l-22 -22q-6 -6 -6 -14.5t6 -15.5l167 -166q6 -6 14.5 -6t15.5 6l311 311q0 22 -8 30z" />
    <glyph glyph-name="label-ing" unicode="&#xe67a;" 
d="M861 433l-40 40l45 45l40 -40zM796 368l-40 40l45 45l40 -40zM1024 896l-1024 -1024h1024v1024zM671 402l17 -17l-86 -87l-18 17zM571 303q4 -54 0 -98q-18 7 -27 9q6 45 0 84zM416 167l28 -27l29 30l-27 27l18 18l27 -27l21 20l17 -16l-21 -21l31 -32l27 26l16 -15
l-27 -27l45 -44l-18 -18l-45 44l-30 -30q26 -29 25 -70q-5 0 -17 -2q-3 0 -10 -2q3 35 -17 55l-25 -25l-15 16l26 27l-32 31l-19 -19l-17 17l19 19l-27 27zM342 76l6 23q28 -4 56 -10l-8 -26q-15 4 -36 9q-12 2 -18 4zM586 19q-24 -23 -35 -33q-31 -29 -58 -22q0 -24 3 -43
l-28 10q1 7 1 20v19l-50 50l-18 -18l-18 18l36 36l68 -68q26 -8 53 17q61 62 94 96q2 -3 6 -11q4 -7 6 -11zM690 113l-66 66q1 -17 -1 -36q-6 3 -19 9q-3 2 -5 2q4 45 -8 99l26 5q3 -14 6 -38v-3l85 -85zM775 205l-28 -28q-10 6 -21 13q8 8 25 24q15 15 2 27l-53 52l-55 -55
l-18 18l103 103l18 -18l-28 -29l55 -55q27 -25 0 -52zM936 358l-20 -20l-57 57l-45 -45l10 -9l-20 -20l-85 86l64 64l-33 33l20 20l33 -33l64 64l85 -84l-20 -20l-9 9l-44 -45zM490 153l32 -32l-30 -29l-32 31z" />
    <glyph glyph-name="label-todo" unicode="&#xe67c;" 
d="M1024 896l-1024 -1024h1024v1024zM482 114q-13 6 -25 10q3 41 -6 81l26 5q8 -51 5 -96zM600 23l-66 65q1 -17 1 -34q-4 2 -12 7q-10 4 -14 6q2 46 -11 92l24 6l1 -2l46 46l-19 19l-38 -38l-17 17l38 38l-20 20l18 19l21 -21l40 40l17 -16l-40 -40l19 -20l48 49l17 -17
l-114 -114l-16 16q5 -17 7 -34l87 -87l-17 -17v0zM642 108h-22q-17 1 -25 1l2 23h4q23 1 43 0zM694 121q-25 -25 -26 -25q-1 1 -6 4.5t-8 5.5q-4 3 -7 4q11 10 22 21q15 12 2 23l-28 28l-69 -69l-16 16l69 69l-12 12l18 19l13 -13l24 25l16 -16l-25 -24l34 -34
q22 -21 -1 -46zM705 236q-3 -1 -10 -2q-8 35 -22 69l23 9q13 -35 24 -72q-4 -1 -15 -4zM824 373q18 -18 24 -25q34 -35 0 -67q-7 -7 -21 -22l-1 -1l-1 -2l-1 -1l-2 -1l-1 -2l-2 -1q-10 8 -22 15q11 9 29 27q22 18 -1 41q-9 9 -29 32q-31 32 -43 46l-42 -42v-1
q88 -85 56 -177q-3 0 -16 1q-9 0 -12 1q13 51 3 80q-7 29 -49 75l-2 1l-48 -48l-18 18l50 50l-16 16l-13 13l20 20q3 -4 14 -15q9 -10 14 -15l60 60l38 -41l5 17q47 -13 68 -20l-8 -24q-31 10 -58 18q8 -7 25 -26z" />
    <glyph glyph-name="label-done" unicode="&#xe67b;" 
d="M1024 896l-1024 -1024h1024v1024zM724 472q20 4 40 5l-4 -23q-21 -1 -40 -3zM439 154l68 69l-24 10l19 23q13 -5 26 -12l63 62l35 -36l-18 -18l-20 19l-114 -115l19 -19l-18 -18zM611 253l16 -17l-118 -118l-17 16zM712 143l-24 -24q-23 -22 -45 0l-32 31l-25 -25
q47 -40 4 -112q-17 5 -28 5q40 59 5 88l-43 -43l-17 16l158 158l17 -16l-51 -52l26 -26q11 -12 23 0l11 11q13 13 4 22q-6 9 -16 20l24 12q2 -1 5 -5q10 -15 12 -20q13 -20 -8 -40zM894 320q-17 -19 -55 -6q-1 -25 -6 -55q-11 2 -26 2q8 35 6 65q-37 20 -83 63l-61 -61
l23 -22l47 47q15 -16 41 -44l4 -5q27 -26 3 -50q-5 -6 -16 -17q-4 3 -11 7q-8 6 -10 8l1 1l1 1l1 1l1 1l1 1l2 1l1 1l1 2l1 1l1 1l1 1l1 1l1 1q13 11 1 23q-5 6 -14 15q-9 10 -13 15l-30 -29q49 -47 62 -98q-1 -1 -7 -2q-15 -2 -20 -3q-7 26 -18 45q-12 17 -42 47l-48 48
l78 78q-11 9 -32 30l18 18q22 -21 32 -30l54 54l17 -16l-54 -54q38 -34 63 -49q-5 24 -22 67l24 10q21 -56 24 -91q1 0 3 -1q27 -13 35 -5q5 5 -1 14q-10 18 -19 28q6 2 17 7q3 2 4 3q16 -21 22 -32q11 -23 -4 -38z" />
    <glyph glyph-name="label-back" unicode="&#xe67d;" 
d="M641 343l113 -113l114 114l-113 113zM823 347l-72 -72l-66 66l72 72zM790 345l-38 -38l-35 36l38 38zM1024 896l-1024 -1024h1024v1024zM558 254q2 17 2 53l25 3q-1 -29 -3 -51q24 4 56 10l3 -26l-63 -10q-3 -30 -18 -68q-7 3 -20 5q-1 1 -3 1q9 26 16 58l-52 -10l-2 24z
M524 52q13 15 37 47l16 -16q-19 -25 -34 -47zM611 40l-20 -20q-11 7 -21 14q5 4 12 10l11 11q14 12 2 25q-9 9 -25 27q-9 10 -13 14l-45 -45l-55 66l16 16l40 -48l17 17l-49 58l-42 -41l-15 16l58 59l64 -76l11 11h1l1 -1l1 -1v0l1 -1l1 -1l1 -1l1 -1l1 -1l1 -1l1 -1
q33 -36 46 -51q26 -26 -2 -54v0zM665 143q-1 -29 -15 -70q-1 0 -8 2q-12 3 -18 4q15 35 16 66q-32 4 -67 21l8 22q31 -15 58 -18q-5 24 -20 56l22 9q18 -37 23 -67q29 1 63 18q4 -14 7 -26q-39 -13 -69 -17zM893 318l-11 11l-114 -114l11 -11l-18 -19l-155 156l151 151
l155 -155z" />
    <glyph glyph-name="leading-in-01" unicode="&#xe640;" 
d="M897 206q-11 0 -20 32q-19 64 -92 121.5t-149 66.5v-1q0 -43 -31 -63q-16 -10 -34 -10q-21 0 -38 14l-154 121q-27 21 -27 56t27 56l154 121q2 2 4 3q16 9 33 9q18 0 34 -10q26 -16 31 -53v-2q1 -3 1 -6v-5q78 -13 148.5 -65t113.5 -126.5t43 -150.5q0 -43 -13 -85
q-3 -10 -12.5 -17.5t-18.5 -5.5v0zM572 659l-1 1q0 6 -1 8l-152 -120q-3 -2 -3 -5t3 -5l153 -121v7v34q0 13 9 22t21 10q73 5 147 -35.5t125 -105.5q-17 90 -99 166t-172 81q-13 0 -22 9.5t-9 22.5v31h1zM572 659zM708 -17h-511q-49 0 -83.5 35t-34.5 83v552q0 49 34.5 83.5
t83.5 34.5h245v-68h-245q-21 0 -36 -14.5t-15 -35.5v-552q0 -21 15 -35.5t36 -14.5h511q21 0 36 14.5t15 35.5v196h67v-196q0 -48 -34.5 -83t-83.5 -35v0zM708 -17z" />
    <glyph glyph-name="hand" unicode="&#xe641;" horiz-adv-x="1025" 
d="M943 542q-21 26 -52 26q-21 0 -53 -19l-176 -135h-71q38 5 65.5 32.5t27.5 53.5q0 40 -21 63.5t-57 26.5h-214l-248 -225l147 -195l120 68h300l221 191q26 23 29.5 55t-18.5 58zM872 448v0v0l-191 -150h-278l-93 -53l-90 117l198 180h162q56 0 56 -46q0 -20 -17 -26.5
t-47 -6.5l-41 -8v-86h169l146 116q7 6 11 9.5t9.5 7.5t9.5 6t8.5 3t8 0t5.5 -3q7 -8 9 -14t-1 -11.5t-6.5 -9.5t-13 -12t-14.5 -13zM310 238l-102 131q-19 26 -52 26q-21 0 -38 -11l-26 -22q-20 -15 -26 -42q-6 -26 11 -48l101 -132q20 -26 53 -26q20 0 37 11l26 23
q20 14 27 41q6 25 -11 49zM257 174l-4 -4q-15 -7 -22 -7q-20 0 -30 15l-83 105q-8 11 -6 25.5t14 23.5l4 3q11 11 22 11q20 0 30 -14l82 -106q9 -14 6.5 -28.5t-13.5 -23.5z" />
    <glyph glyph-name="document-sign" unicode="&#xe63c;" 
d="M723 463q-101 0 -173.5 -72t-72.5 -174q0 -103 71.5 -174.5t174.5 -71.5t174.5 71.5t71.5 174.5q2 102 -70.5 174t-175.5 72zM722.5 13q-84.5 0 -144 60t-59.5 144t59.5 144t144 60t144.5 -60t60 -144t-60 -144t-144.5 -60zM228 668h400v-64h-400v64zM228 504h320v-64
h-320v64zM228 316h160v-64h-160v64zM424 -1h-280v780h644v-224q8 0 34 -2t34 -2v260q0 12 -10 22t-22 10h-716q-12 0 -22 -10t-10 -22v-848q0 -12 10 -22t22 -10h356q-9 11 -22 36t-18 32v0zM884 256q-4 13 -23 19l-71 11l-34 64q-5 14 -22.5 14t-25.5 -14l-34 -64l-71 -11
q-17 0 -23 -19q-5 -14 8 -26l52 -49l-7 -75q0 -15 11 -26q10 -10 30 -4l64 34l63 -34q4 -4 12 -4q4 0 8.5 2t6.5 2q11 11 11 26l-11 72l52 48q4 12 4 34zM775 204q-7 -8 -7 -23l3 -34l-26 19q-4 4 -11.5 4t-10.5 -4l-30 -15l3 30q0 19 -7 23l-23 22l34 4q11 0 19 15l15 30
l15 -30q4 -8 19 -15l33 -4z" />
    <glyph glyph-name="plane" unicode="&#xe625;" horiz-adv-x="1205" 
d="M1003 504h-233l-199 294q-10 15 -28 15h-131q-17 0 -27 -13.5t-4 -28.5l103 -267h-157l-89 84q-10 9 -23 9h-99q-16 0 -26 -12.5t-5 -27.5l53 -176l-53 -177q-5 -15 5 -27.5t26 -12.5h99q13 0 23 10l98 92q10 9 10 22t-9.5 22t-23 9t-23.5 -9l-89 -84h-41l44 146v17
l-44 146h41l89 -84q10 -9 23 -9h218q17 0 27 13.5t4 28.5l-103 267h66l199 -294q10 -15 28 -15h251q27 0 46 -18t19 -43.5t-19 -43.5t-46 -18h-251q-18 0 -28 -14l-199 -295h-66l103 267q5 12 -1 24t-19 16t-25 -1.5t-17 -17.5l-119 -308q-6 -15 4 -28.5t27 -13.5h131
q18 0 28 15l199 294h233q54 0 92.5 36t38.5 87.5t-38.5 87.5t-92.5 36z" />
    <glyph glyph-name="go-out" unicode="&#xe626;" 
d="M501 449h-323l26 22q11 6 12 18.5t-8 23.5q-5 11 -22 11q-4 0 -19 -8l-94 -75q-11 -5 -11 -22t11 -23l94 -75q7 -7 19 -7q17 0 22 11q8 9 6.5 22.5t-10.5 18.5l-26 23h326q12 0 21 9.5t9 20.5t-10 20.5t-23 9.5zM714.5 183q-28.5 0 -48 19.5t-19.5 47.5t19.5 48t48 20
t48 -20t19.5 -48t-19.5 -47.5t-48 -19.5zM714 276q-11 0 -20.5 -8t-9.5 -22q0 -12 8.5 -21t21.5 -9q15 0 22.5 8t7.5 22q0 12 -9 21t-21 9zM801 33h-173q-17 0 -31 13t-14 32v11q0 17 13 31t32 14h173q17 0 31 -13t14 -32v-11q-3 -18 -16 -31.5t-29 -13.5zM628 96
q-3 0 -5 -2t-2 -5v-11q0 -3 2 -5.5t5 -2.5h173q3 0 5 2.5t2 5.5v11q0 3 -2 5t-5 2h-173zM774 96q-5 0 0 0h-116q-15 0 -15 12q-6 12 0 18l56 83q6 8 15.5 8t14.5 -8l57 -83q7 -7 7 -15q0 -5 -6.5 -10t-12.5 -5v0zM692 134h45l-22 34zM853 813h-525q-14 0 -25.5 -12
t-11.5 -26v-225h60v184q0 8 5 13.5t13 5.5h372l-169 -102q-15 -7 -15 -26v-221h60v206l214 128v0v-357h60v394q0 14 -12 26t-26 12zM351 141v173h-60v-214q0 -14 11.5 -25.5t25.5 -11.5h146v60h-105q-8 0 -13 5t-5 13zM718.5 -80q-98.5 0 -167.5 69t-69 167.5t69 167.5
t167.5 69t167 -69t68.5 -167.5t-68.5 -167.5t-167 -69zM718 333q-73 0 -124.5 -51.5t-51.5 -125t51.5 -125t124.5 -51.5t124.5 51.5t51.5 125t-51.5 125t-124.5 51.5z" />
    <glyph glyph-name="leading-in" unicode="&#xe627;" 
d="M902 227q-12 0 -21 31q-19 65 -92 122.5t-149 65.5v-1q0 -42 -31 -62q-16 -10 -33 -10q-21 0 -38 13l-154 122q-28 21 -28 55.5t27 55.5l155 122q2 2 4 3q16 9 33 9q18 0 33 -10q26 -16 32 -54v-2v-5v-5q78 -14 148.5 -65.5t113.5 -126t43 -150.5q0 -44 -12 -85
q-4 -11 -13 -18t-18 -5v0zM576 680v0q-1 6 -2 9l-152 -120q-2 -2 -2 -5q0 -4 3 -6l152 -121q1 2 1 8v34q0 13 8.5 22t21.5 10q72 5 146 -35.5t125 -106.5q-16 91 -98.5 166.5t-172.5 80.5q-13 1 -21.5 10t-8.5 22v32v0zM713 4h-512q-48 0 -83 34.5t-35 83.5v551
q0 49 35 83.5t83 34.5h246v-67h-246q-20 0 -35 -15t-15 -36v-551q0 -21 15 -36t35 -15h512q21 0 35.5 15t14.5 36v196h68v-196q0 -49 -34.5 -83.5t-83.5 -34.5v0v0zM196 343h359v-58h-359v58zM196 228h287v-57h-287v57z" />
    <glyph glyph-name="arrow-down-01" unicode="&#xe60f;" horiz-adv-x="1756" 
d="M145 712q-37 -36 -37 -87.5t37 -88.5l643 -625q38 -36 91 -36t90 36l644 625q37 37 37 88.5t-37.5 88t-90.5 36.5t-90 -37l-553 -537l-553 537q-38 37 -91 37t-90 -37v0v0z" />
    <glyph glyph-name="users" unicode="&#xe628;" horiz-adv-x="1069" 
d="M1000 90q0 98 -55 177.5t-143 114.5q43 28 68 74t25 99q0 74 -45.5 130.5t-115.5 72.5q-1 1 -2 0l-1.5 0.5l-1.5 0.5q-15 0 -25.5 -10.5t-10.5 -25.5q0 -13 8.5 -23t21.5 -12q3 -1 7 -2v-1q41 -13 66.5 -48.5t25.5 -79.5q0 -49 -31.5 -86.5t-79.5 -46.5v0
q-16 -1 -27 -12.5t-11 -27.5q0 -17 11.5 -28.5t27.5 -11.5v-1q95 -9 156 -81t61 -172q0 -14 10.5 -24.5t25.5 -10.5q14 0 24 10t11 24v1v0v0v0v0v0v0v0zM577 376q51 34 81 89t30 118q0 104 -73 177t-176.5 73t-177 -73t-73.5 -177q0 -63 30 -118t81 -89
q-105 -42 -170.5 -137t-65.5 -212q0 -11 1 -26v0q0 -14 10.5 -24.5t25 -10.5t24.5 10.5t10 24.5v2v1q-2 14 -2 23q0 127 90 216.5t216.5 89.5t216 -89.5t89.5 -216.5q0 -9 -2 -24v-0.5v-0.5v0v-0.5v-0.5v0q1 -14 11 -24t24 -10t24 10t11 24v0q1 15 1 26q0 117 -65.5 212
t-170.5 137v0zM438 404q-74 0 -126.5 52.5t-52.5 127t52.5 127t126.5 52.5t127 -52.5t53 -127t-53 -127t-127 -52.5v0z" />
    <glyph glyph-name="turck-01" unicode="&#xe629;" horiz-adv-x="1366" 
d="M524 86q0 -66 -46.5 -112t-112 -46t-112 46t-46.5 112t46.5 112.5t112 46.5t112 -46.5t46.5 -112.5v0zM366 181q-40 0 -67.5 -28t-27.5 -67t27.5 -67t67 -28t67 28t27.5 67t-27.5 67t-66.5 28v0zM1157 86q0 -66 -46.5 -112t-112 -46t-112 46t-46.5 112t46.5 112.5
t112 46.5t112 -46.5t46.5 -112.5v0zM998 181q-39 0 -66.5 -28t-27.5 -67t27.5 -67t67 -28t67 28t27.5 67t-27.5 67t-67.5 28v0zM629 637q0 -13 -11 -22t-26 -9h-217q-15 0 -26 9t-11 22v0q0 13 11 22.5t26 9.5h217q15 0 26 -9.5t11 -22.5v0v0zM629 531q0 -13 -11 -22.5
t-26 -9.5h-217q-15 0 -26 9.5t-11 22.5v0q0 13 11 22t26 9h217q15 0 26 -9t11 -22v0v0zM629 429q0 -13 -11 -22t-26 -9h-217q-15 0 -26 9t-11 22v0q0 14 11 23t26 9h217q15 0 26 -9t11 -23v0v0zM277 429q0 -13 -10.5 -22t-24.5 -9h7q-15 0 -25 9t-10 22v0q0 14 10 23t25 9
h-7q14 0 24.5 -9t10.5 -23v0v0zM277 529q0 -14 -10.5 -23t-24.5 -9h7q-15 0 -25 9.5t-10 22.5v0q0 13 10 22t25 9h-7q14 0 24.5 -9t10.5 -22v0v0zM277 635q0 -13 -10.5 -22.5t-24.5 -9.5h7q-15 0 -25 9.5t-10 22.5v0q0 13 10 22.5t25 9.5h-7q14 0 24.5 -9.5t10.5 -22.5v0v0z
M808 86q0 -13 -9 -22t-22 -9h-189q-13 0 -22 9t-9 22v0q0 13 9 22.5t22 9.5h189q13 0 22 -9.5t9 -22.5v0v0zM146 749h568v-382q0 -18 16 -25t32 0.5t16 24.5q0 1 -0.5 109t-0.5 198.5t1 100.5q0 17 -9.5 27t-22.5 10h-627q-36 0 -36 -31v-687q0 -39 36 -39h23q20 0 29 15.5
t1.5 31.5t-28.5 16zM903 686h206l110 -252v-316q-19 0 -27 -15.5t0 -31.5t27 -17h33q3 1 8.5 2t14 9t8.5 21v361q-108 256 -121 279q-10 17 -14.5 19.5t-22.5 2.5h-248q-22 0 -29.5 -8t-7.5 -27v-328q0 -24 6.5 -35.5t25.5 -14.5q229 -45 231 -46q11 -2 19.5 3t12 14t4 18.5
t-5.5 17.5t-17 10l-213 42v292z" />
    <glyph glyph-name="confirm" unicode="&#xe62a;" 
d="M502 40h-316v706h652v-381q5 1 12.5 2t24.5 -4t26 -19v385q0 31 -23 54.5t-55 23.5h-623q-31 0 -54 -23.5t-23 -54.5v-675q0 -31 23 -54.5t54 -23.5h323q-21 24 -21 64v0v0v0zM294 317v0q-8 0 -14 6t-6 14.5t6 14.5t14 6h195q8 0 14 -6t6 -14.5t-6 -14.5t-14 -6h-195z
M294 190v0q-8 0 -14 6t-6 14.5t6 14.5t14 6h103q8 0 14 -6t6 -14.5t-6 -14.5t-14 -6h-103zM294 445v0q-8 0 -14 6t-6 14t6 14t14 6h325q8 0 14 -6t6 -14t-6 -14t-14 -6h-325zM294 572v0q-8 0 -14 6t-6 14.5t6 14.5t14 6h425q9 0 15 -6t6 -14.5t-6 -14.5t-15 -6h-425z
M735 314q-73 0 -125 -52t-52 -125.5t52 -125t125.5 -51.5t125 51.5t51.5 125t-51.5 125.5t-125.5 52v0zM840 180l-128 -128q-7 -7 -16.5 -7t-15.5 7l-52 52q-7 7 -7 16t7 16t16 7t16 -7l36 -36l112 112q7 7 16 7t16 -6.5t7 -16t-7 -16.5v0v0z" />
    <glyph glyph-name="volume" unicode="&#xe62b;" horiz-adv-x="1171" 
d="M608 803q-19 8 -35 -4q-25 -21 -102 -77q-99 -72 -126 -81h-145q-42 0 -67 -31q-22 -26 -22 -66v-285q0 -40 29 -68.5t70 -28.5h41q13 0 23 9.5t10 23t-10 23t-23 9.5h-41q-13 0 -22.5 9.5t-9.5 22.5v285q0 13 4.5 22.5t17.5 9.5h147q16 0 48 17t109 72q25 18 57 42v-606
q-24 19 -45 36q-70 56 -100 73t-47 17v0q-13 0 -23 -9.5t-10 -23.5q0 -12 9 -21.5t22 -10.5q24 -9 113 -80q8 -6 16 -12.5t15 -12.5l14 -12t13 -11t11 -9.5t9.5 -8t7 -6t4.5 -3.5l2 -1q9 -9 22 -9q7 0 13 3q20 9 20 30v743q0 21 -19 30v0v0zM864 747q-12 7 -25.5 3
t-19.5 -16t-2 -25t16 -19q81 -43 128.5 -120t47.5 -167.5t-47.5 -167.5t-128.5 -120q-12 -6 -16 -19t2 -25q9 -17 29 -17q8 0 16 4q97 51 154 143.5t57 201t-57 201t-154 143.5v0v0zM868 282q35 55 35 120.5t-35 120.5q-34 54 -91 83q-12 6 -25 1.5t-19.5 -16.5t-2 -24.5
t16.5 -18.5q42 -21 66 -60t24 -85.5t-24 -85.5t-66 -60q-12 -6 -16.5 -18.5t2.5 -24.5q9 -18 29 -18q8 0 15 3q57 29 91 83v0v0z" />
    <glyph glyph-name="gift" unicode="&#xe62c;" 
d="M890 621h-757q-22 0 -37.5 -15.5t-15.5 -37.5v-121q0 -22 15.5 -37.5t37.5 -15.5h10v-401q0 -22 15.5 -37.5t37.5 -15.5h631q22 0 37.5 15.5t15.5 37.5v401h10q22 0 37.5 15.5t15.5 37.5v121q0 22 -15.5 37.5t-37.5 15.5v0zM123 447v121q0 4 3 7t7 3h302v-141h-302
q-4 0 -7 3t-3 7v0zM186 -7v401h249v-412h-239q-4 0 -7 3.5t-3 7.5v0zM838 -7q0 -4 -3 -7.5t-8 -3.5h-239v412h250v-401v0zM901 447q0 -4 -3 -7t-8 -3h-302v141h302q5 0 8 -3t3 -7v-121zM494 642h16h0.5h0.5v0h1h16q88 0 154 12q61 11 92 32.5t31 52.5q0 34 -24 54t-64 20
q-45 0 -101 -29t-105 -88q-48 59 -103 88t-100 29q-39 0 -62.5 -20t-23.5 -54q0 -18 11.5 -34t39.5 -31t84 -23.5t137 -8.5v0zM717 770q45 0 45 -31q0 -28 -88 -44q-49 -9 -117 -10q39 41 82.5 63t77.5 22v0zM308 770q34 0 76.5 -22t80.5 -63q-89 2 -145 17t-56 37
q0 31 44 31v0z" />
    <glyph glyph-name="userinfo-03" unicode="&#xe62d;" horiz-adv-x="1118" 
d="M127 558h867v-64h-867v64zM991 -65h-877q-21 0 -36 14.5t-15 34.5v686q0 20 15 34.5t36 14.5h358v-66h-343v-652h848v652h-340v66h354q22 0 37 -14.5t15 -34.5v-686q0 -20 -15 -34.5t-37 -14.5v0v0zM620 494h-134q-13 0 -22.5 9.5t-9.5 22.5v275q0 13 9.5 22.5t22.5 9.5
h134q13 0 22.5 -9.5t9.5 -22.5v-275q0 -13 -9.5 -22.5t-22.5 -9.5v0zM518 558h69v210h-69v-210zM885 400q0 11 -8 18.5t-19 7.5h-214q-11 0 -19 -7.5t-8 -18.5t8 -19t19 -8h214q11 0 19 8t8 19v0v0zM644 296q-11 0 -19 -8t-8 -19t8 -18.5t19 -7.5h161q11 0 18.5 7.5
t7.5 18.5t-7.5 19t-18.5 8h-161zM885 138q0 11 -8 19t-19 8h-214q-11 0 -19 -8t-8 -19t8 -19t19 -8h214q11 0 19 8t8 19v0v0zM553 99h-327v9q0 33 47 67.5t75 40.5q2 3 2 11q-20 22 -26 49q-9 4 -13 16q-8 22 3 37v0q-5 51 17 76q19 22 58 22t59 -22q22 -25 16 -76v0
q12 -15 4 -37q-5 -12 -13 -16q-7 -27 -27 -49q1 -8 3 -11q28 -6 75 -40.5t47 -67.5v1v-10z" />
    <glyph glyph-name="sale" unicode="&#xe62e;" horiz-adv-x="1118" 
d="M620 378h-29v-219h137v26h-108v193zM311 274q-13 6 -48.5 14t-43.5 16q-9 7 -9 19q0 14 12 23.5t39 9.5q25 0 37.5 -10.5t15.5 -31.5l28 2q-1 19 -11 35q-10 15 -28.5 23t-43.5 8q-22 0 -40 -8q-18 -7 -27 -22q-10 -14 -10 -31q0 -14 8 -27q8 -12 23 -21q12 -6 43 -13
q28 -7 38 -11q15 -5 20.5 -12.5t5.5 -18.5q0 -10 -6 -19q-6 -8 -19 -13q-12 -5 -29 -5q-18 0 -33 6q-15 7 -22 18q-7 10 -9 27l-28 -3q1 -21 12.5 -39t31.5 -26q20 -9 50 -9q23 0 41.5 8.5t28.5 24t10 33.5q0 17 -9 31q-9 13 -28 22v0v0zM792 185v74h121v26h-121v67h129v26
h-158v-219h164v26h-135v0zM448 378l-84 -219h31l24 66h92l25 -66h33l-89 219h-32zM427 249l24 64q8 23 12 42q5 -18 16 -45l23 -61h-75zM951 575h-76l-244 173q5 16 5 22q0 35 -25 59.5t-60 24.5t-60 -24.5t-25 -59.5q0 -8 5 -24l-240 -171h-76q-39 0 -66 -27t-27 -65v-427
q0 -39 27 -66t66 -27h796q38 0 65.5 27t27.5 66v427q0 38 -27.5 65t-65.5 27v0zM551 814q18 0 31 -13t13 -31.5t-13 -31.5t-31 -13t-31.5 13t-13.5 31.5t13.5 31.5t31.5 13v0zM491 710q25 -25 60 -25q36 0 61 27l193 -137h-504zM1003 56q0 -22 -15 -37.5t-37 -15.5h-796
q-22 0 -37.5 15.5t-15.5 37.5v427q0 22 15.5 37t37.5 15h796q22 0 37 -15t15 -37v-427z" />
    <glyph glyph-name="chats" unicode="&#xe62f;" horiz-adv-x="1229" 
d="M627 233q-95 0 -162 67t-67 161.5t67 161.5t161.5 67t161.5 -67t67 -161.5t-67 -161.5t-161 -67v0zM627 626q-68 0 -116.5 -48t-48.5 -116.5t48.5 -117t116.5 -48.5t116.5 48.5t48.5 117t-48.5 116.5t-116.5 48v0zM915 -57q-12 0 -21 7.5t-11 19.5q-6 42 -18.5 77
t-27 58.5t-33.5 42.5t-36.5 30t-37.5 18.5t-34 10.5t-29 4t-20.5 1t-9.5 -1h-7q-93 12 -155 -38q-24 -19 -43 -47t-29 -52t-17 -50.5t-9 -36.5t-2 -15q-1 -13 -11.5 -21.5t-23.5 -7t-21 11.5t-7 23q1 8 3 20.5t10.5 43.5t20.5 60t35.5 63t53.5 57q81 66 200 53
q11 0 25.5 -0.5t42.5 -5.5t54.5 -15.5t57.5 -32.5t55.5 -52t45.5 -79t30 -110q2 -13 -6 -23.5t-21 -12.5q-2 -1 -4 -1v0v0zM121 55h-3q-12 1 -20 10.5t-7 21.5q15 168 115 250q37 30 84 47q-51 32 -72 81q-10 25 -11.5 54t2.5 50t13 43.5t12.5 29t7.5 12.5q49 69 121 77
q28 3 57.5 -3t50.5 -15.5t43 -23t28.5 -18.5t12.5 -10q9 -8 9.5 -20.5t-7.5 -21.5t-20 -10t-22 7q-5 5 -22 17.5t-54.5 27.5t-68.5 11q-46 -5 -79 -51v0v0q-37 -66 -22 -122q2 -6 4 -11q27 -63 141 -88q11 -2 18 -12t5 -21.5t-11.5 -18.5t-21.5 -6q-7 1 -26 0.5t-61 -13
t-74 -39.5q-80 -66 -92 -208q-1 -12 -10 -19.5t-20 -7.5v0v0zM878 290q-9 0 -16 5q-21 12 -14 35l19 67h-1q-13 3 -20 14t-4.5 24t13.5 20t24 4l35 -7q13 -3 21 -15q5 -9 4 -19l35 31q9 8 21 8h83v292h-439v-65q0 -13 -9.5 -22.5t-22.5 -9.5t-22.5 9.5t-9.5 22.5v97
q0 13 9.5 22t22.5 9h503q13 0 22.5 -9t9.5 -22v-355q0 -14 -9.5 -23t-22.5 -9h-103l-107 -96q-9 -8 -22 -8v0z" />
    <glyph glyph-name="training" unicode="&#xe630;" 
d="M307 559q10 -32 30.5 -44t41.5 0t31 44q14 7 16 24q3 23 -9 23q-2 25 -16 41t-41.5 16t-42.5 -15.5t-17 -41.5q-12 0 -9 -23q2 -17 16 -24v0zM446 181v22q19 0 32.5 13.5t13.5 32.5v2l177 178q9 8 0.5 17t-17.5 0l-160 -160v151q0 25 -16.5 44t-41.5 25l-24 5l-52 -102
l-51 102l-24 -5q-25 -6 -41.5 -25t-16.5 -44v-188q0 -19 13.5 -32.5t32.5 -13.5v-22h175zM80 339q0 -53 37.5 -90t89.5 -37h2q-11 17 -11 37v18q-27 3 -45 23.5t-18 48.5v346q0 30 21 51.5t51 21.5h607q30 0 51.5 -21.5t21.5 -51.5v-346q0 -30 -21.5 -51.5t-51.5 -21.5h-269
l-27 -27q-2 -14 -11 -27h307q52 0 89.5 37t37.5 90v346q0 52 -37.5 89.5t-89.5 37.5h-607q-52 0 -89.5 -37.5t-37.5 -89.5v-346zM258 136h-94q-35 0 -59.5 -24.5t-24.5 -58.5v-110h261v110q0 34 -24 58.5t-59 24.5v0zM559 136h-94q-35 0 -59 -24.5t-24 -58.5v-110h260v110
q0 34 -24 58.5t-59 24.5v0zM861 136h-95q-35 0 -59 -24.5t-24 -58.5v-110h261v110q0 34 -24.5 58.5t-58.5 24.5v0z" />
    <glyph glyph-name="userinfo-02" unicode="&#xe631;" 
d="M872 499v61q0 1 -1 2l-217 249q-1 1 -3 1h-373q-49 0 -86.5 -37t-38.5 -85v-628q0 -49 37.5 -87t87.5 -38h375h94q49 0 87 38t38 87v437zM653 749v0l152 -182q1 -2 0.5 -3.5t-2.5 -1.5h-88q-23 0 -42.5 33t-19.5 60v94v0zM809 62q0 -24 -19 -43.5t-43 -19.5h-469
q-25 0 -44 19.5t-19 43.5v625q0 24 19 43.5t44 19.5h309q3 0 3 -4v-122q0 -49 37.5 -87t87.5 -38h91q3 0 3 -3v-434zM653 205h-282q-13 0 -22 -9t-9 -22t9 -22t22 -9h282q13 0 22 9t9 22t-9 22t-22 9v0zM360 457q8 -4 14 -5q4 -1 49 -6v2h4h5.5h4.5q33 2 46 7q19 9 12 27
q-3 9 -11 15q-11 7 -28 14q-12 6 -13.5 11t5.5 16q16 19 14 45q0 16 -11 26.5t-27 11.5q-17 0 -28 -10t-13 -27q-2 -26 16 -50q10 -13 -5 -20q-14 -6 -31 -16q-5 -3 -10 -9q-6 -8 -4 -17.5t11 -14.5v0zM653 361h-282q-13 0 -22 -9t-9 -22t9 -22t22 -9h282q13 0 22 9t9 22
t-9 22t-22 9v0z" />
    <glyph glyph-name="knowledge" unicode="&#xe632;" horiz-adv-x="1365" 
d="M1283 548l-598 285l-601 -285l601 -286l470 225v-333h48v356zM685 335l-447 213l447 212l445 -212zM1004 88q-109 -64 -230 -80q-104 -13 -213 10q-108 22 -195 70v219h-49v-264l15 -9q11 -7 30 -17.5t75.5 -32.5t114.5 -35q73 -15 145 -15q40 0 80 5q139 18 261 95l15 9
v264h-49v-219v0z" />
    <glyph glyph-name="development" unicode="&#xe633;" horiz-adv-x="1171" 
d="M1021 -40h-858q-22 0 -37.5 15.5t-15.5 37.5v720q0 22 15.5 37.5t37.5 15.5h858q22 0 37.5 -15.5t15.5 -37.5v-720q0 -22 -15.5 -37.5t-37.5 -15.5v0zM155 45q0 -17 12.5 -29.5t29.5 -12.5h797q17 0 27 12t10 30l1 423h-877v-423zM994 739l-799 -1q-18 0 -29 -11t-11 -28
v-178h877v178q0 18 -10.5 29t-27.5 11v0zM558 582q-18 0 -31.5 13.5t-13.5 32t13.5 31.5t32 13t31.5 -13t13 -31.5t-13 -32t-32 -13.5v0zM434 582q-18 0 -31.5 13.5t-13.5 32t13.5 31.5t32 13t31.5 -13t13 -31.5t-13 -32t-32 -13.5v0zM310 582q-19 0 -32 13.5t-13 32
t13 31.5t32 13t32 -13t13 -31.5t-13 -32t-32 -13.5v0zM780 175l104 45l-106 42v35l161 -59v-35l-159 -63v35zM536 119l78 245h41l-78 -245h-41zM320 220l104 -45v-35l-159 63v35v0l160 59v-35z" />
    <glyph glyph-name="phone" unicode="&#xe634;" 
d="M933 130q-5 29 -36 51l-179 122q-18 13 -40 13q-36 0 -57 -29l-46 -66q-4 -5 -6 -11q-54 5 -128 79q-107 107 -111 157l8 4l64 49q22 17 26 45.5t-13 51.5l-128 175q-23 31 -51.5 34.5t-57.5 -21.5q-15 -13 -36.5 -40t-32.5 -46q-13 -23 -12 -47q-16 -73 3 -163
q36 -170 192 -321q200 -193 403 -193q55 0 91 13q22 1 43 13q19 12 45 34.5t39 38.5q24 29 20 57v0v0zM864 112q-9 -12 -31 -30.5t-36 -27.5q-6 -3 -14 -4v0q-43 16 -53 28t-22 2t-2 -22q7 -9 25 -19q-17 -2 -36 -2q-30 0 -63.5 6.5t-80.5 23t-103 54t-112 91.5
q-63 61 -104 126t-56.5 112t-19.5 93t-2 65t6 32q1 7 0 13t4 14q8 15 26 37.5t29 31.5q6 5 9 6q4 -2 8 -8l128 -175q5 -6 0 -10l-61 -46q-1 -1 -3 -1h-2v0q-28 18 -35 29q-9 13 -22 4.5t-4 -21.5q9 -14 35 -33q-15 -43 15 -99.5t110 -136.5q36 -37 70.5 -59.5t57.5 -30
t44 -8t29.5 2t14.5 6.5q14 7 16 22q1 4 1 11v1l42 60q4 6 10 1l179 -122q7 -4 9 -8q-1 -3 -6 -9v0zM494 625q91 -28 158.5 -95.5t95.5 -158.5q4 -11 15 -11q3 0 5 1q6 2 9 7.5t1 12.5q-30 98 -103 171t-172 103q-6 2 -12 -1t-8 -9.5t1.5 -12t9.5 -7.5v0zM515 741
q137 -32 234 -134t122 -240q2 -13 15 -13h3q6 1 10 6.5t3 11.5q-27 148 -130 256.5t-249 143.5q-7 1 -12.5 -2.5t-7 -9.5t2 -11.5t9.5 -7.5v0z" />
    <glyph glyph-name="record" unicode="&#xe635;" 
d="M681 52h-92q-4 0 -7.5 3.5t-3.5 8.5v91q0 4 3 8l229 229q3 3 8 3v0q4 0 8 -3l91 -92q4 -3 4 -8t-4 -8l-45 -46q-4 -3 -8 -3v0q-5 0 -9 3l-45 46q-8 8 0 16t16 0l38 -38l29 30l-75 75l-217 -217v-75h75l133 134q8 8 16 0t0 -16l-136 -137q-4 -4 -8 -4v0v0v0zM681 40h-92
q-9 0 -16 7t-7 17v91q0 9 7 16l228 229q7 7 17 7t16 -7l92 -92q7 -7 7 -16.5t-7 -16.5l-46 -46q-6 -6 -16 -6t-17 6l-46 46q-6 7 -6 17t6 16q7 7 17 7t17 -7l29 -29l12 13l-58 58l-205 -205v-58h58l130 131q6 6 16 6t17 -6.5t7 -16.5t-7 -17l-137 -137q-7 -7 -16 -7v0v0z
M193 683q0 6 4.5 11t11.5 5h494q7 0 11.5 -5t4.5 -11v-249q0 -7 5 -10.5t11 -2.5l29 7q7 1 11.5 7t4.5 12v299q0 6 -4.5 11t-11.5 5h-112q-6 0 -11 4.5t-5 11.5v40q0 6 -4.5 11t-11.5 5h-327q-6 0 -11 -5t-5 -11v-40q0 -7 -4.5 -11.5t-11.5 -4.5h-111q-7 0 -11.5 -5
t-4.5 -11v-794q0 -6 4.5 -11t11.5 -5h491q7 0 8 3.5t-3 8.5l-37 37q-11 11 -27 11h-373q-7 0 -11.5 5t-4.5 11v671v0zM257 256q0 -13 9.5 -22.5t22.5 -9.5h247q14 0 27 8.5t18 20.5l2 5q6 13 0 21.5t-19 8.5h-275q-13 0 -22.5 -9.5t-9.5 -22.5v0v0zM289 609
q-13 0 -22.5 -9.5t-9.5 -22.5v0q0 -13 9.5 -22.5t22.5 -9.5h321q13 0 22.5 9.5t9.5 22.5v0q0 13 -9.5 22.5t-22.5 9.5h-321zM257 416q0 -13 9.5 -22.5t22.5 -9.5h321q13 0 22.5 9.5t9.5 22.5v0q0 14 -9.5 23.5t-22.5 9.5h-321q-13 0 -22.5 -9.5t-9.5 -23.5v0v0zM721 -4h-150
l-127 -60h336v135l-59 -60v-15zM780 423l-61 -38v64h61v-26z" />
    <glyph glyph-name="podium" unicode="&#xe636;" 
d="M885 665q0 38 -27 65t-65 27h-547v27h2q5 23 23 38t41 15q1 0 14 -2v-11h24q1 0 1.5 -1l0.5 -1v2h54v40h-80v-13h-27v-3q-29 -5 -48 -26.5t-19 -50.5v-14h-1q-38 0 -65 -27t-27 -65l-53 -242q0 -39 21 -65.5t58 -26.5h281v-192q-64 -12 -99 -42.5t-35 -71.5
q0 -50 58.5 -85t141.5 -35t141.5 35t58.5 85q0 41 -35 71.5t-98 41.5v193h280q37 0 58 26.5t21 65.5zM339 851h53v-14h-53v14zM672 25q0 -33 -48.5 -56.5t-111 -23.5t-111.5 23.5t-49 56.5q0 25 24.5 45t68.5 28v-33q0 -6 5 -10q7 -19 24 -31.5t38 -12.5t38 12.5t24 31.5
q5 4 5 10v33q44 -8 68.5 -28t24.5 -45v0zM485 78v253h54v-253q0 -11 -8 -19t-19 -8t-19 8t-8 19v0zM859 371h-694q-16 0 -27.5 11.5t-11.5 27.5l53 268q0 16 17.5 27.5t34.5 11.5h1v-27q-11 -1 -18.5 -6.5t-7.5 -12.5q0 -8 9.5 -14t23.5 -6t23.5 6t9.5 14q0 7 -7.5 12.5
t-18.5 6.5v27h547q17 0 34.5 -11.5t17.5 -27.5l54 -268q-1 -16 -12 -27.5t-28 -11.5v0z" />
    <glyph glyph-name="userinfo-01" unicode="&#xe637;" 
d="M860 -37h-696q-31 0 -52.5 21t-21.5 52v575q0 31 21.5 52.5t52.5 21.5h220v-62h-198q-15 0 -25.5 -11t-10.5 -26v-529q0 -15 10.5 -26t25.5 -11h650q16 0 26.5 11t10.5 26v529q0 15 -10.5 26t-26.5 11h-196v61h220q31 0 52.5 -21.5t21.5 -52.5v-574q0 -31 -21.5 -52
t-52.5 -21v0v0v0v0zM365 476q46 0 78 -43t32 -104q0 -45 -19 -83q38 -21 38 -63q0 -31 -21.5 -52.5t-52.5 -21.5h-110q-30 0 -51.5 21.5t-21.5 52.5q0 42 38 63q-20 38 -20 83q0 61 32.5 104t77.5 43v0v0v0zM365 431q-28 0 -47.5 -29.5t-19.5 -71.5t19.5 -71.5t47.5 -29.5
t48 29.5t20 71t-20 71.5t-48 30v0v0v0zM284 179q0 -14 9.5 -23.5t23.5 -9.5h97q14 0 23.5 9.5t9.5 23.5q0 21 -20 29q-27 -29 -62 -29t-61 29q-20 -8 -20 -29v0v0v0zM622 549h-220q-7 0 -12.5 5.5t-5.5 13t5.5 13t12.5 5.5h18v128q0 38 27 65t65 27t65 -27t27 -65v-128h18
q8 0 13 -5.5t5 -13t-5 -13t-13 -5.5v0v0v0zM562 628v83q0 20 -14.5 35t-35 15t-35 -15t-14.5 -35v-116h99v33v0zM512 696q-8 0 -13 5.5t-5 13t5 12.5t13 5t13 -5t5 -12.5t-5 -13t-13 -5.5v0v0v0zM693 408q0 12 -9 21t-21 9h-61q-12 0 -21 -9t-9 -21v0q0 -13 9 -22t21 -9h61
q12 0 21 9t9 22v0v0zM784 287q0 12 -9 21t-22 9h-151q-12 0 -21 -9t-9 -21v0q0 -13 9 -22t21 -9h151q13 0 22 9t9 22v0v0zM784 166q0 12 -9 21t-22 9h-151q-12 0 -21 -9t-9 -21v0q0 -13 9 -22t21 -9h151q13 0 22 9t9 22v0v0z" />
    <glyph glyph-name="calendar-02" unicode="&#xe692;" 
d="M890 632q0 16 -11.5 27.5t-28.5 11.5h-676q-16 0 -27.5 -11.5t-11.5 -27.5v-595q0 -17 11.5 -28.5t27.5 -11.5h676q17 0 28.5 11.5t11.5 28.5v595zM944 37q0 -39 -27.5 -66.5t-66.5 -27.5h-676q-39 0 -66 27.5t-27 66.5v595q0 38 27 65.5t66 27.5h676q39 0 66.5 -27.5
t27.5 -65.5v-595zM269.5 577q-11.5 0 -19.5 8t-8 19v202q0 11 8 19t19.5 8t19 -8t7.5 -19v-202q0 -11 -7.5 -19t-19 -8zM741.5 577q-11.5 0 -19.5 8t-8 19v202q0 11 8 19t19.5 8t19 -8t7.5 -19v-202q0 -11 -7.5 -19t-19 -8zM914 519h-809q-6 0 -10 4t-4 9.5t4 9.5t10 4h809
q5 0 9 -4t4 -9.5t-4 -9.5t-9 -4zM276 374q3 -2 6 -2t5 2l16 16v1l73 76q3 2 2.5 5t-2.5 5l-13 13q-2 2 -6 2q-3 0 -5 -3l-40 -45q-28 -30 -32 -30q-2 0 -11 7l-16 15q-3 3 -6 2.5t-5 -2.5l-10 -11q-3 -2 -2.5 -5t2.5 -5zM489 374q3 -2 6 -2t5 2l16 16v1l73 76q3 2 2.5 5
t-2.5 5l-13 13q-2 2 -6 2q-3 0 -5 -3l-40 -45q-28 -30 -32 -30q-2 0 -11 7l-16 15q-2 3 -5.5 2.5t-5.5 -2.5l-10 -11q-3 -2 -2.5 -5t2.5 -5zM695 374q2 -2 5 -2t6 2l15 17v0l74 76q2 2 2 5t-2 5l-14 13q-2 2 -6 2q-2 0 -4 -2l-41 -46q-28 -30 -32 -30q-2 0 -10 7l-17 16
q-2 2 -5 1.5t-6 -2.5l-10 -11q-2 -2 -2 -5t2 -5zM274 222q2 -2 5.5 -2t5.5 3l16 16v0l73 76q2 2 2 5t-2 6l-13 12q-3 2 -6 2t-5 -2l-40 -46q-28 -30 -33 -30q-2 0 -10 8l-16 15q-3 2 -6 2t-5 -3l-11 -10q-2 -3 -2 -6t3 -5zM274 70q2 -2 5.5 -2t5.5 2l16 16v1l73 76q2 2 2 5
t-2 5l-13 13q-3 2 -6 2t-5 -3l-40 -45q-28 -30 -33 -30q-2 0 -10 7l-16 15q-3 2 -6 2t-5 -2l-11 -11q-2 -2 -2 -5t3 -5zM487 222q3 -2 6 -2t5 3l16 16v0l73 76q2 2 2 5t-2 5l-13 13q-2 2 -6 2q-3 0 -5 -2l-40 -46q-28 -30 -33 -30q-2 0 -10 8l-16 15q-3 2 -6 2t-5 -3
l-10 -10q-3 -3 -2.5 -6t2.5 -5zM693 222q2 -2 5 -2t6 3l15 16v0l74 76q2 2 2 5t-3 6l-13 12q-2 2 -6 2q-2 0 -4 -2l-41 -46q-28 -30 -32 -30q-2 0 -10 8l-17 15q-2 2 -5 2t-6 -3l-10 -11q-2 -2 -2 -5t2 -5zM704 158h-30v-85h30h24h31v85h-31h-24zM461 158v-85h31h24h30v54
v31h-85z" />
    <glyph glyph-name="userinfo" unicode="&#xe638;" 
d="M874 301q12 0 20 -7.5t8 -18.5v-238q0 -11 -8 -19t-20 -8h-343q-11 0 -19 8t-8 19v238q0 11 8 18.5t19 7.5h343zM874 358h-343q-36 0 -61 -24.5t-25 -58.5v-315q0 -13 4 -18t12.5 -4t18.5 4.5t24.5 7t26.5 3.5h343q36 0 61.5 24.5t25.5 59.5v238q0 34 -25.5 58.5
t-61.5 24.5v0v0v0zM802 180h-191q-12 0 -21 8t-9 20t9 20t21 8h191q12 0 21 -8t9 -20t-9 -20t-21 -8v0v0zM735 61h-124q-12 0 -21 8t-9 20t9 20t21 8h124q12 0 21 -8t9 -20t-9 -20t-21 -8v0v0zM368 -65q-4 0 -7 1q-1 0 -10 -0.5t-24 -0.5t-33.5 1t-40.5 6t-41 13
q-77 32 -113.5 62t-36.5 64q0 30 14.5 81t37.5 66q35 22 95 40q50 16 110 27v47q-56 56 -81 123t-25 150q0 106 56.5 162.5t159.5 56.5q109 0 170 -71q53 -62 53 -152q0 -35 -6.5 -68t-15 -54.5t-19.5 -41t-16 -26.5t-8 -11q-7 -8 -18 -9t-19.5 5.5t-9.5 17t6 18.5
q16 21 27 46q27 58 27 123q0 18 -2.5 35t-12.5 43.5t-26.5 46t-50.5 33.5t-79 14q-84 0 -124 -47q-40 -46 -40 -121q0 -83 22.5 -138.5t76.5 -106.5q7 -7 7 -18v-78q0 -10 -6 -17t-16 -8q-1 0 -26 -6.5t-64 -17.5t-66 -20q-78 -24 -78 -124q0 -31 118 -80q10 -4 21.5 -7.5
t22 -5.5t21.5 -3t20.5 -1.5t18 -0.5t15.5 0.5t12 0.5t7.5 0.5t3.5 0.5q10 -3 15.5 -12t2.5 -19q-5 -19 -25 -19v0v0v0z" />
    <glyph glyph-name="market" unicode="&#xe639;" horiz-adv-x="1118" 
d="M209 812h698q17 0 29 -11.5t12 -26.5q2 -17 -9.5 -28t-29.5 -11h-700q-17 0 -29 11.5t-12 27t12 27t29 11.5v0zM963 -6q0 -18 -17.5 -35t-36.5 -17h-702q-20 0 -37.5 17t-17.5 35v265h72v-253h670v253h69v-265zM927 334q-50 0 -86.5 35t-36.5 83q0 -50 -36 -84t-88 -34
q-50 0 -86.5 35t-36.5 83q0 -50 -36 -84t-88 -34q-50 0 -86.5 35t-36.5 83q0 -50 -36 -84t-88 -34q-50 0 -87 35t-37 83l85 219h809l87 -219q4 -50 -30.5 -84t-85.5 -34v0z" />
    <glyph glyph-name="payments" unicode="&#xe63a;" 
d="M691 -51q-104 0 -178 74t-74 178.5t74 178.5t178.5 74t178.5 -74t74 -178.5t-74 -178.5t-179 -74v0zM691 391q-78 0 -133.5 -55.5t-55.5 -134t55.5 -134t134 -55.5t134 55.5t55.5 134t-55.5 134t-134.5 55.5v0zM775 139h-130l24 -42q5 -7 -12.5 -16.5t-21.5 -2.5
q-49 74 -49 82v0.5v1.5q1 1 1 2q3 17 20 17h5h5h158q9 0 15 -6.5t6 -15t-6 -14.5t-15 -6v0zM796 240q-4 -17 -21 -17h-5q-2 -1 -4 0h-159q-9 0 -15 6t-6 15t6 15t15 6h131l-25 41q-4 8 13 17.5t22 2.5q48 -74 48 -82v-1.5v-0.5v-2v0zM670 623q9 0 15 -6.5t6 -15t-6 -14.5
t-15 -6h-105q-9 0 -15 6t-6 14.5t6 15t15 6.5h105zM249 244h105q9 0 15.5 -6.5t6.5 -15t-6.5 -14.5t-15.5 -6h-105q-8 0 -14.5 6t-6.5 14.5t6.5 15t14.5 6.5v0zM460 475q8 0 14.5 -6t6.5 -14.5t-6.5 -15t-14.5 -6.5h-84v-84q0 -9 -6.5 -15t-15 -6t-15 6t-6.5 15v84h-84
q-8 0 -14.5 6.5t-6.5 15t6.5 14.5t14.5 6h84v85h-84q-8 0 -14.5 6t-6.5 14.5t6.5 15t14.5 6.5h21v42q0 8 6.5 14.5t15 6.5t14.5 -6.5t6 -14.5v-42h85v42q0 8 6 14.5t14.5 6.5t15 -6.5t6.5 -14.5v-42h21q8 0 14.5 -6.5t6.5 -15t-6.5 -14.5t-14.5 -6h-84v-85h84zM775 728
q0 17 -12 29.5t-30 12.5h-547q-17 0 -29.5 -12.5t-12.5 -29.5v-610q0 -18 12.5 -30.5t29.5 -12.5h239q17 -34 41 -63h-301q-35 0 -59.5 25t-24.5 59v653q0 35 24.5 59.5t59.5 24.5h589q35 0 60 -24.5t25 -59.5v-292q-31 17 -64 27v244z" />
    <glyph glyph-name="turck" unicode="&#xe63b;" horiz-adv-x="1366" 
d="M524 107q0 -65 -46.5 -111.5t-112 -46.5t-112 46.5t-46.5 112t46.5 112t112 46.5t112 -46.5t46.5 -112.5v0zM366 202q-40 0 -67.5 -27.5t-27.5 -67t27.5 -67t67 -27.5t67 27.5t27.5 66.5q0 40 -27.5 67.5t-66.5 27.5v0zM1157 107q0 -65 -46.5 -111.5t-112 -46.5
t-112 46.5t-46.5 112t46.5 112t112 46.5t112 -46.5t46.5 -112.5v0zM998 202q-39 0 -66.5 -27.5t-27.5 -67t27.5 -67t67 -27.5t67 27.5t27.5 67t-27.5 67t-67.5 27.5v0zM808 107q0 -13 -9 -22t-22 -9h-189q-13 0 -22 9t-9 22v0q0 14 9 23t22 9h189q13 0 22 -9t9 -23v0v0z
M146 771h568v-383q0 -17 16 -24t32 0t16 24q0 2 -0.5 110t-0.5 198t1 100q0 17 -9.5 27t-22.5 10h-627q-36 0 -36 -30v-688q0 -39 36 -39h23q20 0 29 16t1.5 31.5t-28.5 15.5zM903 707h206l110 -252v-316q-19 1 -27 -15t0 -32t27 -16h33q3 0 8.5 1t14 9t8.5 21v362
q-108 255 -121 278q-10 17 -14.5 20t-22.5 3h-248q-22 0 -29.5 -8t-7.5 -28v-328q0 -23 6.5 -34.5t25.5 -15.5q229 -45 231 -45q11 -3 19.5 2.5t12 14.5t4 18.5t-5.5 17t-17 9.5l-213 43v291z" />
    <glyph glyph-name="userinfo-05" unicode="&#xe693;" 
d="M736 401q-94 0 -160 -66t-66 -159.5t66 -159.5t159.5 -66t159.5 66t66 159.5t-66 159.5t-159 66v0zM736 -3q-74 0 -126.5 52.5t-52.5 126t52.5 126t126 52.5t126 -52.5t52.5 -126t-52.5 -126t-125.5 -52.5v0zM559 470q-13 0 -22 -9.5t-9 -22t9 -22t22 -9.5h51
q13 0 22.5 9.5t9.5 22t-9.5 22t-22.5 9.5h-51zM471 727q7 0 12.5 5t5.5 12.5t-5.5 12.5t-12.5 5t-12.5 -5t-5.5 -12.5t5.5 -12.5t12.5 -5v0zM205 228q0 -30 21 -52.5t50 -22.5h106q29 0 50 22.5t21 52.5q0 19 -10 36t-26 27q19 36 19 81q0 58 -31.5 100t-75.5 42t-75 -41.5
t-31 -100.5q0 -45 19 -81q-17 -10 -27 -27t-10 -36v0zM329 471q27 0 46 -29t19 -69.5t-19 -69t-46 -28.5t-46 28.5t-19 69t19 69.5t46 29v0zM269 256q27 -29 60.5 -29t59.5 29q8 -4 13.5 -14t5.5 -20q0 -14 -9.5 -25.5t-22.5 -11.5h-94q-12 0 -21.5 11.5t-9.5 25.5
q0 10 5.5 20t12.5 14v0zM365 565h212q8 0 13 4.5t5 11.5t-5 11.5t-13 4.5h-9v148q0 36 -29 62t-66.5 26t-66 -26t-28.5 -62v-148h-13q-8 0 -13 -4.5t-5 -11.5t5 -11.5t13 -4.5v0zM473 788q12 0 19.5 -2.5t10 -9t3 -11t-0.5 -16t-1 -17.5v-104h-63v104q0 6 -1 17.5t-0.5 16
t3.5 11t10 9t20 2.5v0zM801 632q8 2 11 2q11 0 11 -13v-197q17 -4 34 -14q13 -8 26 -12v246q0 46 -75 46h-207v-60h184q5 0 16 2v0zM496 57h-340q-14 0 -23.5 17t-9.5 35v512q0 13 9 13q2 0 8 -2q10 -2 16 -2h188v60h-210q-32 0 -51.5 -9t-19.5 -36v-556q0 -31 22.5 -61.5
t48.5 -30.5h391q-5 12 -14 26q-11 17 -15 34v0zM773 212q-28 59 -57 85l-31 -20q22 -20 36 -40q-15 -71 -88 -121q7 -6 18 -22q4 -7 7 -9q65 47 85 106q26 -63 75 -104q16 17 31 32q-49 32 -76 93v0z" />
    <glyph glyph-name="add-04" unicode="&#xe676;" 
d="M512 -66q-190 0 -320 130t-130 320t130 320t320 130t320 -130t130 -320q0 -188 -130.5 -319t-319.5 -131zM512 778q-109 0 -199.5 -52t-142.5 -142.5t-52 -199.5t52 -199.5t142.5 -142.5t199.5 -52t199.5 52t142.5 142.5t52 199.5t-52 199.5t-142.5 142.5t-199.5 52z
M259 412h506v-56h-506v56zM484 637h56v-506h-56v506z" />
    <glyph glyph-name="arrow-right1" unicode="&#xe677;" 
d="M512 -66q-190 0 -320 130t-130 320t130 320t320 130t320 -130t130 -320q0 -188 -130.5 -319t-319.5 -131zM512 778q-109 0 -199.5 -52t-142.5 -142.5t-52 -199.5t52 -199.5t142.5 -142.5t199.5 -52t199.5 52t142.5 142.5t52 199.5t-52 199.5t-142.5 142.5t-199.5 52z
M259 412h506v-56h-506v56zM807 364l-98 -98l-39 39l78 79l-78 79l39 39l118 -118z" />
    <glyph glyph-name="arrow-up-01" unicode="&#xe678;" 
d="M512 -66q-190 0 -320 130t-130 320t130 320t320 130t320 -130t130 -320q0 -188 -130.5 -319t-319.5 -131zM512 778q-109 0 -199.5 -52t-142.5 -142.5t-52 -199.5t52 -199.5t142.5 -142.5t199.5 -52t199.5 52t142.5 142.5t52 199.5t-52 199.5t-142.5 142.5t-199.5 52z
M743 499l-119 118l-118 -118l40 -39l50 51v-211h-337v-57h394v268l50 -51z" />
    <glyph glyph-name="arrow-back-01" unicode="&#xe679;" 
d="M512 -66q-190 0 -320 130t-130 320t130 320t320 130t320 -130t130 -320q0 -188 -130.5 -319t-319.5 -131zM512 778q-109 0 -199.5 -52t-142.5 -142.5t-52 -199.5t52 -199.5t142.5 -142.5t199.5 -52t199.5 52t142.5 142.5t52 199.5t-52 199.5t-142.5 142.5t-199.5 52z
M740 477q-27 56 -76 92.5t-107 45.5l79 25l-17 53l-135 -42l-28 -8l53 -161l54 17l-20 65q47 -6 88 -35t64 -75q36 -74 8.5 -152.5t-101.5 -114.5q-50 -24 -101.5 -20.5t-95.5 31.5q-11 -11 -39 -33q55 -41 123.5 -47.5t134.5 24.5q61 29 99 85.5t42 120.5t-25 129z" />
    <glyph glyph-name="arrow-down" unicode="&#xe610;" 
d="M363 491h298l-149 -214z" />
    <glyph glyph-name="enclosure" unicode="&#xe611;" 
d="M361 -67q-106 0 -180 74q-73 74 -74 179t72 180l406 406q55 55 133.5 55t133.5 -55t55 -133t-56 -133l-407 -407q-35 -32 -82 -31t-80 34t-34 79.5t31 81.5q3 3 363 360q8 9 20.5 9t21 -9t8.5 -21t-9 -21q-342 -339 -361 -358q-15 -17 -14.5 -40t16.5 -39.5t39 -17
t40 15.5l406 406q38 38 38 91q0 54 -37 92q-38 37 -91.5 37t-91.5 -37q-13 -14 -406 -406q-56 -58 -55 -139t57.5 -137.5t137 -57t138.5 55.5q4 3 5 4l351 351q9 9 21 9t21 -8.5t9 -21t-9 -20.5l-354 -354q-76 -74 -182 -74v0v0z" />
    <glyph glyph-name="add" unicode="&#xe61b;" 
d="M512 -59q-89 0 -170.5 33.5t-144.5 96t-96.5 143.5t-33.5 170t33.5 170t96.5 143.5t144.5 96t170.5 33.5t170.5 -33.5t144.5 -96t96.5 -143.5t33.5 -170t-33.5 -170t-96.5 -143.5t-144.5 -96t-170.5 -33.5v0v0zM512 764q-76 0 -146 -29t-124 -82.5t-82.5 -123
t-28.5 -145.5t28.5 -145.5t82.5 -123t124 -82t146 -28.5t146 28.5t124 82t83 123t28.5 145.5t-29 145.5t-82.5 123t-124 82.5t-146 29v0zM735 416h-191v191q0 13 -9.5 22t-22.5 9t-22.5 -9t-9.5 -22v-191h-191q-13 0 -22 -9.5t-9 -22.5t9 -22.5t22 -9.5h191v-191
q0 -13 9.5 -22t22.5 -9t22.5 9t9.5 22v191h191q13 0 22 9.5t9 22.5t-9 22.5t-22 9.5v0zM735 416z" />
    <glyph glyph-name="link-break" unicode="&#xe612;" 
d="M443 487l-114 -113q-9 -9 -9 -22t9 -22.5t22 -9.5t23 9l120 121v32l-51 -51v56zM616 450q12 -3 23.5 4t14 19.5t-4 23.5t-19.5 14l-98 22l-47 -29l71 -17q-20 -12 -28 -17zM250 170q-11 -11 -35.5 -11t-35.5 11l-11 11q-11 12 -4 43t20 44l89 88q1 2 10.5 12.5t16 18.5
t16 25t15.5 36q-32 6 -64 -3t-56 -33l-94 -93q-39 -39 -39 -94.5t39 -94.5l11 -11q39 -39 94.5 -39t94.5 39l94 94q25 25 34 58t1 67q-34 -18 -103 -75zM714 611q-68 16 -120 -31q11 -9 25 -15.5t39.5 -15.5t38.5 -14l125 -29q17 -4 33 -26t13 -37l-4 -15q-4 -16 -26 -32.5
t-37 -12.5l-127 29q-11 1 -32 4t-29 4t-21 2t-21 0t-15 -3q11 -31 36 -52.5t58 -29.5l130 -30q54 -12 101 17t59 82l4 16q13 53 -16.5 100t-83.5 59zM381 607l-24 -56l72 -26zM539 643l-39 -23l32 -47zM447 687l-39 2l55 -119z" />
    <glyph glyph-name="link" unicode="&#xe613;" 
d="M745 547h-103q-31 39 -75 61t-95 22h-194q-89 0 -152 -63.5t-63 -152.5t63 -152.5t152 -63.5h104q30 -38 74.5 -60.5t94.5 -22.5h194q89 0 152.5 63.5t63.5 152.5t-63.5 152.5t-152.5 63.5zM609 414q0 -56 -40 -96t-97 -40h-46q-11 25 -11 53q0 57 40 97t96 40h47
q11 -26 11 -54zM278 278q-56 0 -96 40t-40 96t40 96.5t96 40.5h194q19 0 41 -8q-76 -13 -126.5 -73t-50.5 -139q0 -26 7 -53h-65zM745 195h-194q-19 0 -41 7q76 13 127 73t51 139q0 26 -7 54h64q57 0 97 -40t40 -96.5t-40 -96.5t-97 -40z" />
    <glyph glyph-name="pencil" unicode="&#xe614;" horiz-adv-x="1028" 
d="M954 720q4 -9 7 -21.5t3 -25.5t-5.5 -26.5t-16.5 -25.5q-12 -13 -22 -22t-17 -16l-15 -15l-192 192q13 11 29.5 27t28.5 25q14 11 29.5 15.5t30 4t28.5 -4.5t24 -9q22 -11 48 -39t40 -59zM157 220q6 7 28.5 30t56.5 56l378 378l191 -192l-220 -220l-82 -83
q-41 -40 -73.5 -73.5t-54 -55t-25.5 -24.5q-11 -9 -24 -19t-28 -17q-14 -7 -41.5 -17t-58 -20t-57.5 -17t-40 -9q-28 -3 -37 8t-5 38q2 14 9.5 41.5t16.5 56.5t17 53.5t13 33.5q6 15 14 26.5t22 25.5v0z" />
    <glyph glyph-name="eye" unicode="&#xe615;" 
d="M512 693q-151 0 -273 -88.5t-175 -231.5q53 -142 175 -231t273 -89t273 89t175 231q-53 143 -175 231.5t-273 88.5zM512 160q-86 0 -145 62t-59 151.5t59 151.5t145 62t145 -62t59 -151.5t-59 -151.5t-145 -62zM512 501q-52 0 -87 -36.5t-35 -91t35 -91.5t87 -37t87 37
t35 91.5t-35 91t-87 36.5z" />
    <glyph glyph-name="inform" unicode="&#xe616;" 
d="M512 -52q-88 0 -168.5 35t-139 93.5t-93.5 139t-35 168.5t35 168.5t93.5 139t139 93.5t168.5 35t168.5 -35t139 -93.5t93.5 -139t35 -168.5t-35 -168.5t-93.5 -139t-139 -93.5t-168.5 -35zM512 792q-111 0 -205 -54.5t-148.5 -148.5t-54.5 -205t54.5 -205t148.5 -148.5
t205 -54.5t205 54.5t148.5 148.5t54.5 205t-54.5 205t-148.5 148.5t-205 54.5zM717 246q-4 60 -50 93v101q0 44 -28.5 77t-73.5 41v3q0 19 -14.5 33.5t-35.5 14.5v0q-21 0 -36 -14.5t-15 -33.5v-3q-42 -8 -71.5 -42t-29.5 -76v-101q-47 -37 -51 -93h405zM506 159h12
q25 0 42.5 15t21.5 38h-132q2 -23 20.5 -38t44.5 -15h-9z" />
    <glyph glyph-name="property" unicode="&#xe617;" 
d="M534 -16q-19 0 -33 12l-320 195l-1 2q-15 13 -15 32t15 32l1 2l43 27l-43 27l-1 1q-15 14 -15 33t15 32l1 1l33 21l-33 21l-1 1q-15 14 -15 33t15 32v1l321 204q14 11 33 11t33 -11l320 -204l1 -1q15 -13 15 -32t-15 -33l-2 -1l-32 -21l33 -21l1 -1q15 -13 15 -32
t-15 -33l-2 -1l-43 -27l44 -27l1 -2q15 -13 15 -32t-15 -32l-1 -1l-320 -196q-14 -12 -33 -12zM531 30l1 -2h2h2l1 2l319 194v1l-1 1l-54 34l-234 -143q-14 -11 -33 -11t-33 11l-234 143l-55 -34v-1v-1zM531 151l1 -1q1 -1 2 -1t2 1l1 1l318 195q1 1 0 1l-44 29l-244 -150
q-14 -11 -33 -11t-33 11l-244 150l-45 -29v-1zM856 455v0.5t-1 0.5l-318 203l-1 1q-1 1 -2 1t-2 -1v0l-320 -204v-0.5v-0.5h644z" />
    <glyph glyph-name="menu" unicode="&#xe618;" 
d="M879 457h-734q-29 0 -49.5 -21.5t-20.5 -51.5t20.5 -51.5t49.5 -21.5h734q29 0 49.5 21.5t20.5 51.5t-20.5 51.5t-49.5 21.5zM879 748h-734q-29 0 -49.5 -21.5t-20.5 -51.5t20.5 -51.5t49.5 -21.5h734q29 0 49.5 21.5t20.5 51.5t-20.5 51.5t-49.5 21.5zM879 166h-734
q-29 0 -49.5 -21.5t-20.5 -51.5t20.5 -51.5t49.5 -21.5h734q29 0 49.5 21.5t20.5 51.5t-20.5 51.5t-49.5 21.5z" />
    <glyph glyph-name="arrow-retract" unicode="&#xe619;" 
d="M151 386q0 17 12.5 29.5t29.5 12.5h725q17 0 29.5 -12.5t12.5 -30t-12.5 -29.5t-29.5 -12h-725q-17 0 -29.5 12.5t-12.5 29.5zM451 686q0 -17 -12 -30l-274 -272l274 -274q12 -12 12 -29.5t-12.5 -29.5t-29.5 -12t-30 12l-303 303q-12 12 -12 30v0q0 17 12 29l303 303
q13 12 30 12t29.5 -12.5t12.5 -29.5z" />
    <glyph glyph-name="filter" unicode="&#xe61a;" 
d="M595 -49v1h-1q-10 10 -10 25v54v369q0 17 12 29l243 243q12 12 15 24q6 22 -7 40t-35 19h-5h-590q-36 0 -46 -31q-8 -23 7 -43q4 -6 11 -12q145 -146 232 -232q11 -12 11 -29v-252q0 -20 -16 -29q-14 -7 -27.5 0.5t-15.5 23.5v7v237q0 5 -3 9q-168 167 -229 228
q-32 32 -32 76q0 37 22 65.5t57 37.5q14 3 29 4h590q62 0 94 -53q16 -27 14 -59.5t-21 -56.5q-7 -9 -14 -16q-125 -126 -234 -234q-3 -3 -3 -8v-127v-149.5v-126.5q0 -24 -11 -34h-37v0v0zM595 -49z" />
    <glyph glyph-name="logo-new" unicode="&#xe600;" horiz-adv-x="3491" 
d="M991 305q-30 69 -101 87.5t-129 -24.5l-321 -280h105l258 224q27 20 60.5 15t53.5 -33t15 -60q-5 -34 -33 -54t-60 -15q-22 4 -36 15q-21 16 -42 0v0q-14 -10 -14 -27.5t14 -29.5q31 -22 70 -28q62 -7 109 30q31 22 46.5 56.5t14.5 73.5q1 24 -10 50zM739 479
q-15 73 -72.5 120.5t-132.5 47.5q-73 0 -129.5 -45t-72.5 -114q-41 10 -83 3q-63 -11 -107.5 -58t-51.5 -110q3 0 8 1t8 1q26 0 52 -10q6 41 34.5 70.5t68.5 36.5q50 9 93 -21q28 -19 43 -53q4 -11 15 -17.5t23 -4.5v0q17 2 25 17t2 31q-21 50 -66 83q7 51 46 86t91 35
q50 0 88 -31.5t48 -79.5q3 -13 12.5 -20.5t21.5 -7.5q18 -1 28.5 11.5t7.5 28.5zM711 378q-20 25 -51.5 28t-55.5 -17q-39 -32 -121 -103t-98 -85q-47 -38 -94 -38q-65 0 -105 51q-17 22 -43.5 31.5t-52.5 3.5v0q16 -71 72 -115t129 -44q74 0 141 55q116 93 279 233v0z
M1372 147v130h-119q-7 -86 -50 -141q-10 14 -24 28q28 41 36 84q9 46 9 126v145h334v-325q0 -49 -46 -49q-40 0 -63 2q-1 5 -3 17t-3 16q46 -2 58 -2q26 0 26 24v76h-120v-130h-35v-1zM1254 306h117v77h-114q1 -36 -3 -77zM1257 489v-76h115v76h-115zM1524 489h-119v-76h119
v76zM1405 306h119v77h-119v-77zM1638 481h114q7 41 10 64l35 -5q-3 -24 -10 -59h238v-32h-245q-9 -42 -14 -60h215v-29q-32 -85 -89 -133q57 -36 139 -50q-4 -5 -13.5 -17.5t-13.5 -18.5q-84 24 -140 66q-60 -41 -149 -69q-14 20 -21 33q84 22 143 58q-53 49 -79 131
q-40 -132 -114 -203q-14 19 -22 28q88 90 123 264h-108v32h1zM1944 360h-153q22 -67 74 -112q60 46 79 112zM2344 318q56 -63 119 -143l-30 -24q-5 8 -16 22.5t-13 17.5q-164 -6 -248 -12q-19 -2 -32 -7l-17 37q26 13 41 32q37 44 82 115h-148v30h400v-30h-208
q-61 -89 -106 -144q141 3 215 7q-46 58 -65 80zM2119 514h323v-30h-323v30zM2543 496h179q-4 6 -12.5 19t-11.5 17l28 16q14 -16 29 -41l-19 -11h180v-77h-30v46h-311v-46h-31v77h-1zM2580 411h135v44h31v-44h135v-200h-30v19h-105v-89h-31v89h-105v-19h-30v200zM2610 334
h105v48h-105v-48zM2610 258h105v48h-105v-48zM2851 382h-105v-48h105v48zM2746 258h105v48h-105v-48zM2977 320q23 6 58 17v96h-53v29h53v80h31v-80h44v-29h-44v-85q28 9 43 14q-1 -12 -1 -33q-2 0 -17.5 -5.5t-24.5 -9.5v-124q0 -43 -38 -45h-10.5h-14.5h-14q-2 24 -4 34
q25 -2 33 -2q16 0 16 16v111q-35 -12 -54 -18zM3229 242q1 -6 1.5 -11.5t1 -12.5t1.5 -11q-70 -44 -74 -46q-13 -10 -20 -18l-22 27q13 11 13 35v334h32v-126h67v-30h-67v-183q23 13 67 42zM3241 539h31v-152q39 34 82 82l25 -23q-59 -61 -107 -99v-140q0 -24 21 -24h25
q24 0 27 22q5 20 9 68q10 -4 31 -11q0 -4 -8 -67q-7 -44 -47 -44h-39q-49 0 -49 50v338h-1z" />
    <glyph glyph-name="from-to" unicode="&#xe60e;" 
d="M576 600v-152h-404q-15 0 -29.5 -10t-14.5 -23v-62q0 -13 14.5 -23t29.5 -10h404v-152q0 -12 14 -17.5t23 2.5l273 216q7 6 7.5 15t-6.5 15l-275 216q-9 8 -22.5 2.5t-13.5 -17.5z" />
    <glyph glyph-name="reduce" unicode="&#xe61c;" 
d="M512 -59q-89 0 -170.5 33.5t-144.5 96t-96.5 143.5t-33.5 170t33.5 170t96.5 143.5t144.5 96t170.5 33.5t170.5 -33.5t144.5 -96t96.5 -143.5t33.5 -170t-33.5 -170t-96.5 -143.5t-144.5 -96t-170.5 -33.5v0v0zM512 764q-76 0 -146 -29t-124 -82.5t-83 -123t-29 -145.5
t29 -145.5t83 -123t123.5 -82.5t146 -29t146.5 29t124 82.5t83 123t29 145.5t-29 145.5t-83 123t-124 82.5t-146 29v0v0zM544 352h191q13 0 22 9.5t9 22.5t-9 22.5t-22 9.5v0v0h-191h-64h-190q-14 0 -23 -9.5t-9 -22.5t9 -22.5t23 -9.5h190h64z" />
    <glyph glyph-name="fold" unicode="&#xe61f;" 
d="M377 682v-579l290 289z" />
    <glyph glyph-name="unfold" unicode="&#xe620;" 
d="M716 608l-409 -410h409v410z" />
    <glyph glyph-name="plane-01" unicode="&#xe61d;" 
d="M721 -21l-134 117v195l334 -109v81l-337 262v154v90q0 22 -17 40q-21 25 -53 25h-0.5h-1h-1.5h-1q-32 0 -53 -25q-17 -18 -17 -40v-90v-154l-336 -262l-1 -81l335 109l-1 -195l-134 -117v-40l16 3v-8l165 49l28 6l28 -6l166 -49v8l15 -3v40v0zM721 -21z" />
    <glyph glyph-name="train" unicode="&#xe61e;" 
d="M826 179v427q0 48 -34.5 82.5t-83.5 34.5h-390q-48 0 -82.5 -34.5t-34.5 -82.5v-427q0 -43 29 -77t72 -40l-104 -128h112l112 125h195l103 -125h106l-95 128q40 9 67.5 41.5t27.5 75.5v0zM324 126q-22 0 -37.5 15t-15.5 38q0 21 15 37t38 16q21 0 37 -15.5t16 -37.5
q0 -21 -15.5 -37t-37.5 -16v0zM697 126q-21 0 -37 15.5t-16 37.5t15.5 37.5t37.5 15.5t37.5 -15t15.5 -38q0 -21 -15 -37t-38 -16v0zM775 408q0 -25 -16.5 -42t-41.5 -17h-404q-25 0 -42 17t-17 42v128q0 25 17 41.5t42 16.5h401q25 0 41.5 -16.5t16.5 -41.5v-128h3z
M444 750h142q17 0 29.5 12.5t12.5 29.5t-12.5 29.5t-29.5 12.5h-142q-17 0 -29.5 -12.5t-12.5 -29.5t12.5 -29.5t29.5 -12.5v0zM444 750z" />
    <glyph glyph-name="bus" unicode="&#xe621;" 
d="M944 641h-765q-48 0 -80.5 -25.5t-32.5 -81.5v-350h85v14q0 42 29 71t70 29t70 -29t29 -71v-14h341v14q0 41 28.5 70.5t69.5 29.5t70 -29.5t29 -70.5v-14h85v430q0 12 -8.5 19.5t-19.5 7.5zM236 441h-114v57q0 38 20.5 62t36.5 24h57v-143zM406 441h-114v143h114v-143z
M575 441h-113v143h113v-143zM745 441h-113v143h113v-143zM915 441h-113v143h113v-143zM250.5 253q-29.5 0 -50.5 -23t-21 -55t21 -54.5t50.5 -22.5t50 22.5t20.5 54.5t-20.5 55t-50 23zM788.5 253q-29.5 0 -50.5 -23t-21 -55t21 -54.5t50.5 -22.5t50.5 22.5t21 54.5t-21 55
t-50.5 23z" />
    <glyph glyph-name="pencil-03" unicode="&#xe672;" horiz-adv-x="1799" 
d="M1297 183v29h330q24 0 41 -17t17 -41v-161q0 -25 -17 -42t-41 -17h-1464q-24 0 -41 17t-17 42v161q0 24 17 41t41 17h629v-29h-629q-12 0 -20.5 -8.5t-8.5 -20.5v-161q0 -13 8.5 -21.5t20.5 -8.5h1464q12 0 20.5 8.5t8.5 21.5v161q0 12 -8.5 20.5t-20.5 8.5h-330z
M1115 79l-186 -36q-9 -2 -17.5 3.5t-10.5 15.5l-35 184q-2 10 3 18l374 556q5 8 15 10v0q10 2 18 -4l222 -150q8 -6 10 -15.5t-4 -17.5l-74 -111q-6 -8 -15 -10v0q-10 -2 -18 3l-111 75q-8 6 -10 15.5t3.5 18t15.5 10t18 -3.5l91 -62l48 72l-183 124l-355 -528l29 -152
l153 30l218 325q6 8 15.5 9.5t17.5 -4t10 -15t-3 -17.5l-224 -333q-6 -8 -15 -10v0z" />
    </font>
</defs>
</svg>
